<?xml version="1.0" standalone="no"?>
<!DOCTYPE svg PUBLIC "-//W3C//DTD SVG 20010904//EN"
 "http://www.w3.org/TR/2001/REC-SVG-20010904/DTD/svg10.dtd">
<svg version="1.0" xmlns="http://www.w3.org/2000/svg"
 width="1721.000000pt" height="1979.000000pt" viewBox="0 0 1721.000000 1979.000000"
 preserveAspectRatio="xMidYMid meet">

<g transform="translate(0.000000,1979.000000) scale(0.100000,-0.100000)"
fill="#000000" stroke="none">
<path d="M7870 17984 c-839 -61 -1599 -357 -2253 -877 -500 -398 -788 -899
-883 -1539 -8 -57 -18 -191 -21 -298 -8 -261 12 -485 63 -712 15 -63 18 -70
67 -105 83 -59 157 -124 157 -136 0 -7 -26 -28 -57 -46 -81 -48 -341 -222
-448 -300 -1407 -1023 -2390 -2564 -2714 -4256 -91 -476 -128 -910 -118 -1400
13 -634 99 -1200 272 -1790 104 -355 264 -753 455 -1130 424 -838 1011 -1574
1742 -2182 1039 -866 2398 -1432 3735 -1554 109 -11 137 -10 160 1 15 7 31 13
35 12 4 -1 5 5 1 14 -3 9 0 14 8 12 8 -2 13 3 11 10 -1 8 2 11 6 8 5 -3 20 4
34 17 13 12 28 24 33 27 6 3 9 8 8 12 -2 5 0 7 5 7 20 -3 32 2 26 13 -4 6 -3
8 3 5 5 -4 19 3 31 13 28 27 34 25 20 -5 -7 -16 -14 -21 -18 -14 -5 7 -13 -1
-21 -19 -7 -17 -17 -28 -21 -26 -5 3 -5 10 -2 16 4 7 2 8 -5 4 -6 -4 -9 -12
-6 -17 4 -5 1 -9 -5 -9 -6 0 -8 -4 -5 -10 3 -5 1 -10 -4 -10 -6 0 -11 5 -11
10 0 6 -6 6 -13 -2 -8 -7 -12 -22 -9 -33 4 -19 4 -19 -10 -1 -16 20 -26 13
-33 -22 -2 -14 2 -19 20 -18 12 1 29 7 37 14 8 6 17 9 21 6 3 -3 3 5 0 18 -4
18 -3 20 6 8 8 -11 11 -12 11 -2 0 7 5 10 10 7 8 -5 7 -12 -2 -23 -12 -15 -11
-16 4 -4 10 8 17 17 16 20 -2 14 14 42 22 37 5 -3 6 5 3 17 -5 23 -5 23 11 3
12 -16 15 -16 10 -3 -5 13 -1 16 15 13 12 -2 19 -1 17 4 -3 4 -1 13 5 21 7 13
9 13 9 0 1 -12 3 -11 11 3 6 9 14 15 20 12 5 -3 6 1 3 9 -4 11 0 14 15 11 12
-2 20 1 18 8 -1 6 3 11 10 12 6 0 14 2 17 6 3 3 -15 5 -40 4 -39 0 -50 -5 -70
-30 -21 -27 -23 -27 -21 -7 1 12 5 22 10 22 4 0 5 5 1 12 -4 6 -3 8 4 4 6 -3
13 -2 17 4 3 5 27 10 52 10 26 0 44 3 41 6 -3 3 -66 7 -139 10 -195 8 -334 19
-499 39 -86 11 -125 16 -155 21 -33 5 -72 11 -125 18 -19 3 -48 8 -65 12 -16
3 -41 7 -55 10 -48 8 -75 13 -118 24 -23 6 -57 12 -75 14 -18 3 -32 5 -32 6 0
0 -94 25 -210 54 -499 128 -904 280 -1360 511 -557 282 -1011 595 -1505 1037
-995 892 -1694 2128 -1974 3493 -209 1020 -172 2083 109 3075 116 410 309 905
489 1255 512 994 1299 1865 2241 2480 77 51 173 112 214 136 l74 43 33 -38
c182 -210 454 -705 621 -1126 109 -275 243 -690 243 -751 0 -9 -26 -32 -57
-52 -128 -78 -306 -216 -568 -441 -33 -28 -39 -29 -158 -34 -191 -7 -427 19
-604 67 -34 9 -47 20 -74 64 -41 67 -89 111 -164 150 -51 26 -74 31 -150 35
-78 4 -101 1 -170 -23 -44 -14 -134 -56 -200 -93 -202 -113 -227 -119 -313
-76 -88 44 -121 114 -101 214 6 30 17 67 24 81 20 37 98 121 133 141 29 18 30
17 131 -32 56 -28 108 -50 114 -50 7 0 30 27 52 60 22 33 46 60 54 60 8 0 -39
42 -105 94 l-119 94 -30 -15 c-137 -70 -298 -239 -377 -398 -73 -145 -81 -290
-23 -390 34 -59 127 -142 192 -172 139 -64 250 -40 526 115 116 64 188 88 240
78 59 -11 59 -13 43 -117 -8 -52 -18 -140 -22 -196 l-6 -102 -108 54 -108 54
-52 -70 c-48 -66 -50 -72 -33 -84 10 -7 58 -45 107 -84 l89 -71 53 30 c30 16
58 30 62 30 5 0 12 -30 16 -67 9 -97 59 -287 106 -401 22 -54 40 -106 40 -115
0 -9 -36 -87 -79 -174 -278 -555 -429 -1111 -472 -1743 -17 -260 -1 -673 37
-906 l6 -42 -43 -7 c-79 -13 -223 -64 -284 -100 -151 -91 -234 -233 -223 -384
l4 -56 -131 -1 c-112 -1 -143 -4 -220 -28 -280 -85 -471 -269 -520 -501 -19
-90 -19 -138 1 -232 37 -182 175 -366 329 -442 97 -48 182 -64 310 -58 126 6
212 28 330 86 157 75 258 172 328 311 17 36 35 67 39 70 28 22 35 255 9 323
-19 49 -15 50 153 9 21 -5 32 -16 39 -37 15 -46 72 -130 119 -176 24 -23 80
-66 125 -96 77 -50 84 -58 129 -141 61 -112 194 -330 249 -407 23 -33 69 -118
103 -188 75 -156 131 -242 224 -342 85 -91 102 -102 134 -85 22 12 29 8 109
-66 285 -264 420 -372 670 -539 1196 -796 2681 -989 4044 -523 389 133 701
287 1079 535 79 51 156 100 171 108 16 8 77 19 137 25 170 17 297 52 427 117
72 36 102 36 70 -1 -11 -11 -32 -41 -47 -66 -16 -25 -44 -64 -63 -87 -38 -48
-35 -67 8 -61 23 4 29 1 29 -13 0 -10 -5 -21 -10 -24 -6 -3 -9 -34 -8 -68 1
-56 2 -58 7 -20 5 35 14 47 54 78 39 30 46 39 36 51 -6 8 -8 14 -4 14 4 0 2 6
-4 13 -8 11 -4 19 17 38 l27 24 -23 -26 c-15 -18 -20 -29 -13 -34 6 -3 9 -10
6 -15 -3 -4 2 -13 10 -20 13 -11 15 -9 12 8 -2 12 -6 25 -10 28 -4 4 -2 13 4
21 9 10 15 11 25 2 11 -9 11 -15 3 -25 -6 -8 -8 -14 -5 -14 4 0 1 -10 -6 -22
-7 -13 -11 -30 -10 -38 3 -13 2 -13 -7 0 -10 13 -11 13 -11 0 0 -12 -2 -12 -9
-2 -7 11 -9 10 -15 -3 -3 -9 -11 -13 -16 -10 -6 4 -9 1 -8 -6 2 -7 -2 -13 -9
-14 -16 0 -21 -7 -27 -37 -3 -18 1 -31 12 -40 9 -7 14 -8 9 -3 -4 4 0 17 9 27
14 14 20 16 33 6 13 -10 14 -10 4 2 -7 8 -13 21 -13 29 0 11 4 10 15 -5 15
-18 15 -18 8 0 -4 13 -3 17 5 12 6 -3 13 -2 17 4 4 6 12 7 18 4 7 -4 9 -4 5 1
-4 4 -2 15 5 23 10 13 9 14 -1 8 -20 -12 -7 43 18 77 16 21 19 32 11 41 -8 9
-4 19 14 36 13 13 22 26 20 31 -3 4 -1 10 4 13 18 12 4 -24 -19 -49 l-25 -26
26 5 c41 7 111 55 105 71 -3 8 -1 17 5 20 5 4 9 3 8 -2 -1 -4 -1 -12 0 -16 1
-10 111 73 111 85 0 5 4 7 9 4 10 -7 33 18 26 27 -3 4 -2 5 1 2 11 -7 45 15
39 25 -4 6 1 7 11 3 12 -4 15 -3 10 6 -5 7 -2 10 6 9 7 -2 12 2 11 8 -2 13 31
12 35 -1 1 -6 -2 -10 -8 -10 -5 0 -15 -7 -22 -15 -11 -12 -11 -12 2 -4 20 14
46 11 42 -5 -1 -8 2 -10 10 -4 7 4 16 8 21 9 4 1 10 2 14 3 4 0 2 6 -4 12 -13
13 4 62 19 53 5 -3 4 -12 -3 -20 -10 -12 -9 -17 0 -27 10 -9 11 -8 5 7 -5 13
-4 17 4 12 6 -4 18 4 27 18 10 15 24 23 35 21 11 -2 19 1 17 8 -1 7 4 11 10
10 7 -2 12 3 10 10 -1 6 3 11 9 10 6 -1 11 4 11 12 0 8 -5 13 -11 12 -6 -1
-10 5 -8 13 2 8 0 11 -5 7 -4 -5 -8 -14 -8 -20 0 -20 -38 -14 -41 6 -2 15 0
16 14 5 9 -7 14 -8 10 -4 -12 14 26 36 50 30 14 -4 19 -12 17 -25 -2 -11 0
-17 6 -14 5 4 6 11 3 17 -18 29 116 -39 201 -102 62 -46 160 -149 204 -213 52
-76 90 -166 112 -267 24 -112 32 -127 23 -44 -9 89 -22 132 -61 209 -96 189
-237 325 -441 425 -40 19 -72 37 -72 40 0 3 20 32 45 65 24 33 66 97 91 143
26 46 53 82 62 82 8 0 36 -13 61 -28 53 -32 85 -46 76 -33 -3 5 -1 13 5 16 8
5 8 11 0 20 -8 10 -8 15 0 20 8 5 8 11 0 20 -7 9 -6 16 7 26 16 13 17 12 5 -3
-9 -11 -10 -18 -2 -23 8 -5 8 -11 1 -19 -11 -13 -5 -26 11 -26 5 0 7 4 3 9 -3
5 -1 13 5 16 7 5 8 11 1 19 -6 8 -6 17 0 26 9 13 9 13 7 0 -2 -8 2 -15 7 -15
6 0 10 12 9 27 0 15 4 26 10 25 6 -1 10 4 8 11 -1 8 2 11 8 7 8 -5 7 -12 -2
-23 -17 -20 -17 -30 0 -57 11 -18 12 -17 8 12 -2 20 1 37 10 44 11 9 12 15 2
26 -9 11 -8 13 3 11 8 -2 13 3 11 10 -1 8 2 11 7 8 10 -7 33 18 26 27 -3 4 -2
4 3 1 4 -3 7 -10 7 -15 0 -5 5 -9 10 -8 6 1 9 5 7 11 -1 5 1 7 6 4 10 -6 55
38 47 46 -3 3 1 11 9 17 10 8 16 9 21 1 4 -6 3 -9 -2 -8 -4 2 -9 -1 -11 -7 -2
-5 -17 -25 -34 -42 -32 -33 -46 -67 -25 -60 7 2 12 8 12 14 0 5 16 27 34 49
19 21 32 32 29 23 -3 -9 -2 -22 3 -30 9 -15 9 -14 13 34 1 12 -5 31 -13 42
-16 20 -16 20 7 1 12 -11 20 -21 17 -24 -3 -3 3 -14 12 -25 11 -12 12 -17 4
-12 -9 5 -12 4 -7 -3 4 -7 2 -20 -3 -29 -8 -13 -10 -14 -11 -4 0 11 -4 9 -14
-5 -8 -10 -20 -19 -28 -19 -7 -1 -12 -7 -10 -14 1 -7 -2 -10 -8 -6 -6 4 -7 -1
-4 -12 5 -15 4 -16 -5 -3 -9 13 -11 13 -11 0 0 -13 -1 -13 -10 0 -9 13 -10 13
-11 0 -1 -8 -1 -22 0 -30 2 -12 0 -13 -7 -1 -8 11 -10 11 -15 0 -4 -11 -6 -11
-6 1 -1 9 -9 3 -21 -15 -11 -17 -20 -23 -20 -15 0 9 -8 3 -19 -13 -10 -16 -20
-24 -22 -18 -8 23 -25 -25 -18 -49 l7 -25 1 25 c1 18 4 21 10 11 12 -19 6 -47
-10 -43 -10 3 -10 0 1 -12 14 -17 25 -22 15 -7 -3 5 -1 12 4 15 5 4 8 18 5 32
-3 15 -1 23 5 20 5 -4 19 6 30 20 12 15 21 23 21 19 0 -4 6 -2 13 4 8 6 17 8
21 4 4 -4 4 0 1 9 -7 18 8 19 35 4 12 -7 12 -6 3 4 -13 14 -6 43 8 34 5 -3 6
-11 3 -17 -4 -7 -3 -8 2 -4 5 5 9 12 10 15 2 19 17 41 24 37 4 -2 15 4 25 15
10 11 21 18 25 15 4 -2 7 1 8 8 5 39 9 53 14 63 4 6 1 22 -7 36 -12 24 -11 28
11 49 13 12 21 25 19 30 -3 4 -1 10 4 13 17 11 5 -23 -16 -46 -18 -19 -20 -26
-9 -40 7 -10 16 -15 19 -11 4 3 2 11 -3 18 -7 8 -1 19 18 36 l27 24 -24 -27
c-23 -26 -20 -37 5 -20 13 8 46 82 37 82 -3 0 1 8 8 17 12 15 12 16 -1 8 -13
-7 -12 -5 1 11 21 26 47 117 69 244 11 68 22 104 29 102 8 -1 11 12 10 40 -1
24 2 66 6 94 5 34 4 54 -4 58 -6 4 -11 14 -11 23 0 12 7 14 37 10 20 -4 42
-12 49 -19 20 -20 56 -214 58 -310 0 -47 4 -81 8 -75 4 7 8 -2 8 -19 0 -21 5
-31 15 -31 8 0 13 3 10 5 -2 3 31 32 75 65 44 32 80 63 80 68 0 5 6 8 13 7 6
-2 11 3 9 10 -1 6 2 11 7 10 25 -7 72 39 85 82 l13 45 47 0 c34 0 51 5 60 17
7 10 16 15 19 11 4 -3 7 -1 7 5 0 7 4 12 9 12 6 0 8 -9 6 -20 -2 -11 1 -22 6
-25 5 -4 6 -11 3 -17 -4 -7 -2 -8 5 -4 6 4 8 13 4 19 -11 17 -11 57 -1 57 5 0
6 6 2 12 -4 7 2 5 14 -6 12 -10 19 -23 16 -28 -4 -6 -10 -5 -15 3 -8 13 -8 5
0 -40 1 -2 9 3 19 12 10 10 23 14 28 10 5 -5 2 1 -7 12 -9 11 -14 27 -12 35 4
12 3 12 -5 1 -12 -17 -23 1 -11 19 5 8 9 11 9 7 0 -5 7 -1 16 7 18 18 34 21
34 6 0 -6 -5 -9 -12 -8 -7 2 -12 -9 -13 -26 0 -19 5 -30 15 -31 12 -2 16 6 15
34 0 20 -4 42 -9 50 -6 9 -5 12 1 8 6 -4 26 8 45 26 43 40 41 40 103 41 37 1
40 3 56 45 10 28 30 54 54 72 21 16 40 31 43 33 5 6 10 32 21 111 6 46 7 48
19 30 11 -17 12 -6 8 71 -7 111 -31 191 -80 269 -29 45 -44 85 -62 165 -64
284 -187 513 -381 708 -57 57 -103 101 -103 97 0 -7 -73 46 -78 58 -2 4 -10 7
-17 7 -8 0 -20 6 -28 14 -8 8 -35 24 -61 37 -26 12 -43 26 -39 30 5 5 243 10
528 11 l520 3 -3 -33 c-1 -23 1 -31 9 -26 9 5 10 -5 6 -39 l-6 -45 55 -4 54
-3 -5 285 c-10 544 -21 601 -144 762 -20 26 -42 47 -48 48 -7 0 -13 4 -13 8 0
18 -79 45 -148 50 -186 12 -300 -114 -345 -383 -2 -12 -10 4 -21 40 -24 82
-106 214 -133 215 -7 0 -13 4 -13 9 0 5 -9 11 -21 14 -12 3 -18 10 -15 15 8
14 -31 149 -65 220 -43 90 -72 85 -108 -19 -66 -193 -196 -366 -356 -472 -40
-27 -72 -36 -60 -17 3 6 2 10 -4 10 -12 0 18 112 33 122 7 5 11 57 11 140 0
114 -5 149 -29 242 -29 109 -29 110 -22 310 4 110 9 203 12 205 10 11 27 -21
43 -84 9 -38 23 -72 31 -76 8 -4 278 -31 600 -59 322 -28 596 -54 609 -58 18
-5 31 -24 51 -72 l27 -65 44 3 c24 2 45 5 46 6 4 4 -89 381 -96 388 -3 4 -26
2 -51 -4 l-45 -10 4 -80 3 -80 -58 6 c-33 3 -94 8 -136 11 -74 6 -78 8 -78 31
0 39 -82 358 -94 366 -8 5 -6 12 4 21 24 23 220 137 234 137 7 0 24 -28 37
-63 l25 -62 47 0 c27 0 46 4 44 10 -3 6 -35 135 -72 289 l-67 278 -41 -6 c-22
-4 -43 -9 -47 -11 -4 -3 -6 -33 -3 -67 l4 -63 -522 -332 c-287 -183 -524 -331
-526 -329 -2 1 6 72 17 157 11 85 25 257 32 382 10 196 10 230 -3 237 -9 6
-10 13 -4 19 22 22 774 421 793 421 7 0 28 -25 48 -55 20 -30 41 -55 46 -55 5
0 22 7 37 15 16 8 31 11 35 8 13 -13 5 10 -12 35 -10 15 -63 110 -117 212 -54
102 -113 210 -131 242 -18 31 -29 59 -26 63 7 7 -79 -34 -88 -42 -2 -2 0 -7 6
-11 19 -13 54 -113 45 -130 -9 -17 -397 -231 -419 -232 -19 0 -52 82 -62 153
-14 93 -1 109 203 265 65 50 129 105 142 124 14 18 30 39 36 46 38 45 -13 186
-117 326 l-56 74 -45 -25 c-24 -14 -41 -28 -35 -32 17 -11 50 -100 45 -120 -3
-11 -42 -48 -87 -83 -112 -86 -193 -165 -224 -217 -22 -37 -26 -57 -25 -114 0
-38 5 -72 10 -76 15 -9 22 -47 12 -62 -6 -11 -22 1 -64 46 -30 32 -55 65 -55
71 0 27 -74 255 -120 370 -186 466 -528 937 -890 1227 -432 347 -989 571
-1520 613 l-85 6 7 111 c13 187 69 491 132 715 14 46 22 91 19 98 -8 22 20 17
125 -22 476 -178 1050 -488 1487 -803 1214 -876 2079 -2103 2485 -3526 57
-203 130 -521 133 -582 1 -23 6 -43 11 -43 5 0 6 -13 3 -30 -4 -19 -2 -30 5
-30 6 0 8 -11 5 -30 -4 -19 -2 -30 4 -30 7 0 9 -13 4 -36 -5 -27 -3 -34 6 -29
9 6 10 -1 5 -29 -5 -24 -3 -36 4 -36 8 0 10 -13 5 -41 -5 -31 -4 -40 5 -34 9
5 10 -5 5 -39 -5 -31 -4 -46 4 -46 7 0 9 -15 4 -45 -4 -29 -2 -45 5 -45 7 0 9
-19 5 -55 -3 -30 -2 -55 3 -55 21 0 25 -786 5 -1030 -64 -785 -245 -1501 -556
-2200 -93 -208 -280 -565 -387 -737 -11 -18 -17 -33 -14 -33 3 0 34 48 69 108
214 360 392 739 539 1142 51 143 154 477 183 596 15 65 21 75 60 103 32 23 43
37 40 51 -2 12 0 18 6 15 5 -4 7 -11 4 -16 -4 -5 -2 -9 3 -9 17 0 22 13 10 28
-7 7 -13 24 -15 35 -2 17 -1 19 6 7 5 -8 8 -17 5 -21 -2 -4 3 -12 11 -19 13
-11 15 -10 12 6 -1 11 -6 25 -11 32 -5 8 -3 12 6 10 7 -2 12 2 11 8 -1 6 5 11
13 11 12 0 12 -3 0 -16 -7 -9 -12 -24 -11 -34 5 -25 15 -35 15 -14 0 29 1 31
18 51 9 10 15 19 13 20 -3 0 0 10 7 21 6 11 12 15 12 8 0 -6 -5 -15 -10 -18
-6 -4 -8 -10 -5 -15 3 -4 -2 -13 -10 -20 -8 -7 -12 -17 -9 -22 5 -8 38 28 39
42 0 3 3 10 6 15 4 6 5 17 4 26 -3 17 10 19 33 6 7 -5 10 -13 7 -18 -11 -16
11 -9 28 9 19 21 23 37 6 26 -6 -3 -4 4 4 17 13 21 55 241 72 384 9 72 14 83
25 65 8 -13 10 -12 10 2 0 9 -4 20 -10 23 -13 8 -13 65 -1 65 5 0 12 -6 14
-12 3 -7 6 -1 6 14 1 15 -3 30 -9 33 -13 8 -13 52 -1 59 5 4 12 0 14 -6 3 -7
6 4 6 25 1 20 -3 37 -7 37 -4 0 -7 12 -6 28 2 37 3 39 13 24 20 -33 36 537 22
816 -31 611 -117 1121 -282 1677 -241 807 -662 1601 -1217 2295 -46 58 -96
120 -110 139 -145 185 -517 561 -757 766 -591 506 -1245 903 -1945 1180 -107
43 -197 79 -199 81 -5 5 99 307 177 509 92 241 241 601 312 753 33 72 60 142
60 155 0 50 -263 330 -480 513 -337 283 -791 565 -1252 780 -455 212 -808 315
-1263 369 -125 15 -532 27 -645 19z m725 -292 c55 -15 10 -19 -115 -10 -370
28 -918 -42 -1385 -177 -431 -125 -858 -341 -1158 -585 -49 -39 -91 -70 -93
-67 -2 2 31 33 73 69 506 425 1240 694 2123 778 110 10 511 5 555 -8z m920
-3367 c334 -38 616 -118 908 -258 113 -54 148 -77 117 -77 -6 0 -51 20 -100
45 -615 309 -1389 367 -2191 165 -706 -178 -1207 -450 -1638 -889 -57 -58 -99
-97 -93 -86 15 30 276 281 372 359 495 397 1270 685 2015 749 121 11 492 6
610 -8z m1398 -839 c487 -80 873 -252 1264 -564 135 -108 360 -327 465 -452
190 -226 344 -511 442 -820 15 -47 30 -92 32 -100 3 -10 2 -11 -4 -5 -5 6 -22
48 -37 95 -15 47 -33 99 -41 115 -7 17 -25 59 -40 95 -135 328 -328 598 -634
886 -582 546 -1286 799 -2080 745 -613 -42 -1179 -219 -1840 -574 -91 -49 -94
-52 -65 -58 27 -6 25 -7 -14 -8 -37 -1 -70 -17 -205 -98 -180 -108 -414 -259
-836 -539 -474 -315 -767 -469 -1110 -584 -253 -84 -594 -150 -784 -150 -42 0
-65 -5 -80 -17 -16 -14 -18 -14 -8 -2 11 15 -4 17 -151 22 -175 7 -305 29
-429 73 -88 32 -181 79 -204 106 -11 11 15 2 67 -26 184 -97 361 -131 689
-131 325 0 560 39 880 145 399 131 634 258 1285 690 204 135 435 287 515 337
582 364 1122 611 1605 732 208 52 307 69 615 105 91 11 609 -3 703 -18z
m-2214 -166 c11 -24 11 -24 -3 -6 -9 11 -16 24 -16 30 0 12 5 7 19 -24z
m-2218 -153 c-13 -12 -20 -15 -16 -7 14 26 28 41 33 35 3 -3 -5 -16 -17 -28z
m-45 -55 c-18 -16 -18 -16 -6 6 6 13 14 21 18 18 3 -4 -2 -14 -12 -24z m-35
-45 c-10 -9 -11 -8 -5 6 3 10 9 15 12 12 3 -3 0 -11 -7 -18z m2372 -224 c-7
-2 -19 -2 -25 0 -7 3 -2 5 12 5 14 0 19 -2 13 -5z m-990 -70 c-7 -2 -19 -2
-25 0 -7 3 -2 5 12 5 14 0 19 -2 13 -5z m-50 -10 c-7 -2 -19 -2 -25 0 -7 3 -2
5 12 5 14 0 19 -2 13 -5z m-63 -13 c-14 -4 -34 -8 -45 -8 -16 0 -15 2 5 8 14
4 34 8 45 8 16 0 15 -2 -5 -8z m-73 -16 c-3 -3 -12 -4 -19 -1 -8 3 -5 6 6 6
11 1 17 -2 13 -5z m-82 -20 c-27 -7 -54 -13 -60 -13 -17 2 69 27 90 27 11 0
-2 -6 -30 -14z m1766 -254 c209 -65 448 -351 589 -705 103 -260 185 -587 230
-920 39 -289 54 -350 121 -492 41 -85 116 -173 149 -173 9 0 23 7 30 15 11 13
10 22 -7 53 -61 109 -105 282 -133 522 -32 264 -67 467 -114 650 -24 91 -46
173 -51 183 -12 29 32 21 193 -32 330 -109 595 -269 846 -511 170 -164 502
-588 679 -867 82 -129 212 -390 262 -527 45 -122 107 -346 100 -363 -2 -7 0
-13 6 -13 7 0 9 -10 5 -25 -4 -15 -2 -25 4 -25 6 0 8 -10 4 -24 -3 -13 -1 -26
4 -30 5 -3 7 -17 4 -31 -2 -14 0 -25 5 -25 5 0 8 -13 5 -30 -2 -17 0 -30 6
-30 6 0 8 -8 6 -17 -3 -10 -1 -46 4 -80 5 -35 7 -63 5 -63 -11 0 -96 48 -147
84 -32 23 -74 51 -92 63 -50 34 -162 171 -229 279 -59 95 -76 108 -99 71 -8
-13 -8 -19 0 -25 6 -4 25 -34 42 -68 51 -101 148 -238 224 -316 177 -180 371
-268 593 -268 116 0 209 21 299 65 93 46 163 108 225 200 46 69 111 215 111
250 0 8 4 15 9 15 5 0 7 9 4 20 -3 12 0 20 7 20 8 0 10 12 5 39 -6 39 2 56 21
43 13 -8 35 -92 28 -104 -3 -5 -1 -14 4 -21 5 -7 9 -77 7 -162 -1 -131 -5
-160 -28 -230 -31 -94 -79 -178 -149 -258 -61 -70 -56 -77 48 -77 142 0 327
70 451 170 77 62 146 146 209 256 27 45 53 82 58 81 14 -4 16 -110 6 -221 -12
-115 -52 -244 -106 -336 -40 -69 -161 -202 -225 -246 l-39 -27 -118 17 c-145
20 -241 21 -268 2 -10 -8 -17 -17 -14 -20 3 -3 51 -14 105 -26 223 -47 400
-116 551 -215 145 -94 301 -264 349 -379 12 -29 12 -32 -6 -33 -10 -1 -55 18
-100 43 -174 96 -367 143 -624 151 -160 5 -182 4 -194 -11 -8 -9 -12 -18 -10
-20 2 -1 49 -36 104 -76 191 -140 364 -335 457 -516 59 -114 110 -272 112
-346 0 -31 4 -54 8 -51 9 5 1 -179 -13 -285 -11 -92 -39 -215 -47 -208 -3 3
-15 46 -28 95 -44 175 -144 351 -262 461 -83 79 -122 102 -144 86 -16 -12 -20
-76 -4 -76 5 0 6 -20 3 -45 -4 -25 -3 -45 1 -45 15 0 5 -427 -12 -542 -24
-167 -63 -305 -121 -433 l-27 -60 -23 84 c-12 46 -43 125 -69 175 -45 90 -165
252 -193 263 -26 10 -44 -23 -54 -98 -34 -274 -127 -533 -270 -749 -72 -109
-216 -263 -304 -325 -82 -58 -86 -60 -78 -38 6 16 5 17 -12 3 -17 -14 -18 -13
-11 5 24 65 59 201 69 273 8 59 15 81 24 78 7 -3 13 0 13 7 0 15 -38 40 -50
32 -5 -3 -33 -40 -63 -83 -108 -153 -306 -316 -414 -340 -24 -6 -43 -8 -43 -6
0 3 25 30 56 62 70 70 138 159 184 240 19 34 41 62 48 62 18 0 15 14 -8 28
-19 12 -30 4 -123 -82 -133 -125 -222 -195 -332 -263 -129 -81 -300 -156 -280
-123 3 5 0 10 -9 10 -12 0 -11 7 5 40 11 22 23 56 27 77 5 21 14 37 20 35 17
-3 15 108 -3 183 -17 74 -48 146 -73 168 -17 16 -21 14 -69 -18 -196 -132
-453 -209 -733 -222 -121 -5 -151 -3 -175 10 l-30 15 65 28 c442 188 787 474
1043 864 134 205 247 477 293 708 10 50 21 92 25 92 3 0 4 11 1 25 -2 14 0 25
6 25 18 0 35 255 29 449 -12 386 -77 594 -245 784 -77 88 -171 136 -297 152
-66 8 -183 -16 -261 -55 -75 -37 -173 -137 -249 -254 -96 -147 -153 -273 -299
-656 -67 -176 -173 -327 -299 -426 -114 -89 -330 -185 -357 -158 -7 7 7 44 43
115 85 167 188 453 227 632 7 31 17 57 22 57 5 0 6 9 3 20 -3 11 -2 20 3 20 8
0 43 176 61 315 25 184 33 410 28 753 -8 531 -52 921 -168 1479 -82 398 -168
634 -306 841 -105 158 -205 252 -328 312 -239 115 -456 60 -691 -174 -277
-279 -488 -757 -593 -1346 -79 -445 -119 -1073 -106 -1660 l7 -314 -65 61
c-114 106 -229 145 -367 124 -40 -7 -74 -10 -75 -9 0 2 9 126 21 275 87 1065
88 1815 3 2188 -41 177 -121 328 -205 386 -67 46 -154 64 -235 50 -69 -13
-153 -47 -197 -81 -274 -211 -487 -709 -566 -1325 -26 -201 -56 -541 -63 -720
l-6 -170 -134 3 c-74 3 -193 -1 -266 -8 -176 -16 -273 -49 -351 -119 l-28 -26
-17 24 c-76 114 -119 167 -164 202 -94 75 -237 129 -343 129 l-51 0 -11 77
c-6 43 -9 79 -8 81 2 2 41 -13 87 -31 46 -19 110 -43 142 -53 51 -16 62 -24
96 -73 37 -55 63 -70 90 -52 11 7 11 24 -4 107 -19 105 -30 380 -15 389 5 3
37 -27 72 -66 139 -158 326 -276 450 -286 87 -7 142 17 197 87 51 64 61 98
117 395 57 305 79 396 164 685 146 498 251 778 411 1105 133 274 278 453 423
525 110 55 243 37 336 -47 97 -88 132 -181 155 -423 32 -331 43 -390 85 -457
20 -33 42 -41 69 -24 13 8 13 21 2 88 -6 43 -16 168 -22 278 -5 110 -14 220
-19 245 l-10 45 63 58 c151 141 364 248 577 290 126 25 180 29 180 15 0 -45
-62 -190 -187 -437 -144 -287 -149 -300 -102 -301 34 0 186 202 276 368 101
185 132 258 209 490 96 295 136 374 234 473 82 82 134 112 232 134 91 20 176
18 249 -5z m-3128 -492 c9 -62 17 -121 17 -130 0 -25 -158 -72 -393 -117 -129
-25 -136 -25 -133 -6 4 29 447 365 480 365 7 0 19 -45 29 -112z m6408 65 c13
-16 12 -17 -3 -4 -17 13 -22 21 -14 21 2 0 10 -8 17 -17z m111 -160 c55 -82
147 -238 106 -179 -46 66 -187 286 -180 282 5 -3 38 -49 74 -103z m143 -233
c9 -16 13 -30 11 -30 -3 0 -12 14 -21 30 -9 17 -13 30 -11 30 3 0 12 -13 21
-30z m45 -80 c6 -11 8 -20 6 -20 -3 0 -10 9 -16 20 -6 11 -8 20 -6 20 3 0 10
-9 16 -20z m265 -40 c3 -5 1 -10 -4 -10 -6 0 -11 5 -11 10 0 6 2 10 4 10 3 0
8 -4 11 -10z m15 -51 c0 -6 -4 -7 -10 -4 -5 3 -10 11 -10 16 0 6 5 7 10 4 6
-3 10 -11 10 -16z m-7890 -122 c0 -2 -12 -14 -27 -28 l-28 -24 24 28 c23 25
31 32 31 24z m8190 -133 c49 -45 112 -146 104 -168 -5 -14 -104 -76 -122 -76
-4 0 -16 55 -25 123 -10 67 -22 126 -28 132 -15 15 -11 25 11 25 11 0 38 -16
60 -36z m-4263 -39 c82 -41 179 -125 247 -216 143 -189 247 -505 345 -1044 35
-192 81 -500 81 -546 0 -30 -1 -30 -67 39 -44 44 -89 79 -128 98 -53 26 -70
29 -155 29 -84 0 -102 -3 -155 -29 -85 -41 -197 -157 -257 -266 -46 -84 -87
-185 -78 -193 3 -2 67 -52 142 -111 146 -115 164 -131 150 -140 -5 -3 -78 5
-162 18 l-154 23 -22 -22 c-41 -41 -44 -297 -7 -512 9 -51 20 -93 24 -93 5 0
6 -7 2 -16 -3 -9 -2 -19 4 -23 5 -3 20 -37 32 -76 57 -173 164 -332 272 -404
165 -110 328 -91 480 55 38 37 72 64 76 60 9 -9 -40 -254 -82 -403 -94 -334
-248 -666 -323 -694 -36 -14 -248 4 -359 31 -339 81 -658 326 -1006 773 -38
48 -71 99 -73 115 -12 73 -16 1015 -5 1222 29 562 90 981 196 1342 25 84 51
164 57 178 6 14 15 35 19 48 5 12 13 32 19 45 5 12 21 51 35 87 69 171 212
387 326 496 183 174 351 215 526 129z m-2106 -451 c34 -17 77 -68 97 -114 8
-19 19 -44 23 -55 35 -81 74 -328 89 -565 11 -182 13 -617 4 -721 l-7 -67 -50
27 c-43 22 -64 26 -132 26 -67 -1 -88 -5 -131 -27 -71 -37 -173 -150 -217
-241 -60 -124 -63 -113 55 -207 103 -82 133 -119 87 -107 -12 3 -65 12 -116
18 -133 18 -128 26 -128 -204 1 -222 19 -305 100 -474 44 -89 68 -126 117
-176 35 -35 80 -71 101 -81 20 -9 37 -21 37 -25 0 -21 -147 -164 -212 -207
-62 -42 -194 -103 -224 -104 -8 0 -8 16 -2 53 15 91 12 314 -6 410 -22 113
-68 243 -118 332 -46 81 -123 188 -166 228 -25 24 -29 36 -31 91 -5 152 31
624 70 925 53 414 175 800 323 1031 135 209 307 301 437 234z m-2446 -333 c9
-30 176 -279 242 -361 213 -267 484 -514 804 -736 l107 -74 -6 -47 c-19 -171
-74 -210 -210 -148 -144 66 -318 261 -447 503 -22 40 -34 52 -51 52 -30 0 -46
-31 -81 -157 -24 -88 -27 -116 -27 -265 l-1 -166 -87 44 c-47 25 -124 72 -170
105 -122 87 -138 81 -138 -51 0 -74 8 -140 35 -290 l7 -36 -60 -12 c-145 -30
-280 -171 -350 -365 -26 -73 -40 -129 -79 -322 -24 -120 -23 466 2 706 37 368
122 753 234 1057 17 45 28 82 25 82 -4 0 -1 6 5 13 6 8 8 17 4 20 -3 4 0 7 7
7 7 0 10 3 7 7 -4 3 -2 12 4 20 6 7 9 13 6 13 -9 0 46 130 120 283 64 133 85
158 98 118z m9598 -571 c20 -82 34 -156 31 -165 -7 -18 14 -18 -282 4 -212 16
-280 28 -261 45 5 5 408 250 433 263 11 6 25 9 31 7 6 -3 27 -72 48 -154z
m395 -1017 c92 -44 131 -130 124 -270 l-4 -83 -260 0 -261 0 5 86 c2 47 1 87
-3 89 -4 3 -2 23 3 44 12 47 67 115 111 137 76 40 200 38 285 -3z m-581 -69
c32 -20 70 -74 80 -114 5 -19 8 -65 5 -102 l-4 -67 -110 -3 c-136 -4 -141 0
-105 80 15 32 32 82 38 110 7 29 17 52 22 52 5 0 6 11 3 25 -12 47 15 54 71
19z m-9253 -128 c91 -53 157 -165 206 -349 39 -148 68 -345 77 -521 l6 -139
-29 7 c-182 47 -463 84 -659 88 l-140 3 6 170 c20 530 160 787 421 772 49 -3
78 -11 112 -31z m301 -87 c66 -63 125 -159 125 -202 0 -14 -12 -48 -27 -77
l-26 -51 -18 70 c-23 90 -72 213 -109 274 -16 26 -24 47 -19 47 6 0 39 -27 74
-61z m988 -83 c50 -20 151 -119 203 -198 61 -91 100 -185 126 -305 28 -127 31
-380 5 -522 -19 -102 -58 -224 -88 -275 l-19 -33 -54 26 c-29 14 -51 29 -49
33 2 4 -1 9 -6 12 -5 4 -1 22 9 44 49 103 60 137 80 242 31 158 25 368 -14
515 -32 123 -98 257 -171 350 -30 39 -58 77 -62 85 -4 8 -14 20 -22 27 -14 11
-13 12 7 13 12 0 37 -6 55 -14z m-249 -39 c130 -60 238 -211 292 -407 32 -117
44 -358 25 -490 -10 -68 -63 -255 -75 -267 -2 -2 -64 24 -137 58 -193 88 -361
155 -544 215 l-160 52 -3 79 c-8 182 40 456 100 578 34 69 106 148 160 176 58
30 106 38 198 36 68 -3 97 -9 144 -30z m5361 -228 c81 -30 167 -113 210 -203
37 -77 80 -220 70 -235 -3 -5 0 -13 5 -16 7 -4 8 -19 5 -37 -6 -23 -4 -29 5
-23 10 6 11 1 7 -18 -4 -14 -3 -90 3 -169 32 -483 -101 -1019 -342 -1371 -399
-581 -1175 -938 -2223 -1022 -158 -13 -487 -16 -655 -6 -777 45 -1138 163
-2080 680 -555 305 -799 409 -1221 522 -180 48 -267 78 -384 135 -80 38 -224
135 -233 156 -2 5 -11 15 -19 23 -36 37 -55 183 -29 233 60 116 352 107 731
-21 394 -134 692 -292 1475 -784 365 -229 510 -313 696 -403 799 -387 1555
-484 2304 -295 769 193 1247 639 1480 1375 11 36 30 111 43 168 13 56 27 99
31 95 5 -5 5 12 2 37 -5 28 -4 40 2 32 6 -9 13 16 21 75 14 111 14 260 1 268
-6 4 -8 11 -4 16 3 5 10 7 15 4 15 -10 10 35 -5 51 -35 35 -66 -7 -66 -88 0
-84 -46 -343 -86 -481 -110 -385 -272 -667 -528 -922 -188 -187 -406 -332
-637 -425 -291 -116 -546 -160 -923 -160 -377 0 -764 64 -1134 186 -237 78
-391 159 -1067 561 -1013 602 -1280 738 -1675 852 -465 134 -730 97 -817 -114
-17 -43 -19 -45 -53 -39 -63 11 -194 56 -250 85 -72 37 -103 58 -154 107 -35
34 -45 52 -59 109 -19 83 -13 183 14 230 50 81 163 150 318 190 242 63 710 32
1136 -77 317 -80 595 -185 930 -350 279 -138 450 -240 646 -386 255 -192 380
-270 492 -308 47 -16 97 -13 97 6 0 16 -43 54 -121 106 -42 28 -168 120 -280
204 -207 155 -343 250 -412 286 -23 12 -33 22 -25 25 8 4 7 6 -4 6 -10 1 -18
4 -18 7 0 3 18 42 39 87 22 45 43 94 46 109 6 23 17 30 78 48 176 54 289 130
487 330 142 143 163 160 244 201 84 41 95 44 170 44 141 -1 209 -51 411 -310
188 -242 288 -356 432 -495 250 -243 454 -363 728 -432 80 -20 114 -23 305
-22 201 0 221 2 313 26 189 52 357 147 488 277 125 124 215 276 289 486 121
345 216 530 338 658 122 128 259 168 397 116z m2553 -660 c96 -38 264 -125
293 -152 l22 -20 -21 -8 c-12 -5 -34 -4 -50 2 -16 5 -33 9 -38 8 -5 -1 -48 -1
-95 0 l-86 1 -66 78 c-37 42 -80 90 -94 106 l-27 29 42 -6 c23 -4 77 -21 120
-38z m1588 -284 c-1 -8 -10 -22 -19 -33 -13 -15 -14 -21 -4 -32 10 -12 9 -12
-6 -1 -17 13 -17 15 4 38 13 12 19 23 15 23 -4 0 -4 5 -1 10 9 14 14 12 11 -5z
m-26 -8 c0 -2 -10 -12 -22 -23 l-23 -19 19 23 c18 21 26 27 26 19z m-96 -66
c3 -5 -2 -15 -12 -22 -15 -12 -16 -12 -5 2 7 9 10 19 6 22 -3 4 -4 7 0 7 3 0
8 -4 11 -9z m-94 -97 c0 -8 -19 -13 -24 -6 -3 5 1 9 9 9 8 0 15 -2 15 -3z
m-1052 -74 c154 -59 277 -154 330 -255 23 -43 26 -61 25 -127 -2 -85 -29 -197
-49 -205 -12 -4 -59 7 -104 24 -8 4 -18 7 -22 8 -5 2 -10 4 -13 5 -3 1 -9 4
-15 5 -5 1 -12 4 -15 5 -3 1 -9 4 -15 5 -5 1 -12 4 -15 5 -3 1 -9 4 -15 5 -5
1 -12 4 -15 5 -3 1 -9 4 -15 5 -5 1 -11 3 -12 5 -2 1 -10 3 -20 5 -45 9 -51
20 -49 93 4 128 -43 384 -76 409 -15 12 -10 33 8 33 5 0 45 -13 87 -30z
m-10326 -186 c91 -53 104 -69 113 -140 18 -143 -76 -258 -300 -365 -273 -131
-546 -180 -677 -121 -95 42 -128 100 -128 223 0 57 4 72 32 114 61 92 235 196
448 268 143 49 228 65 339 66 l94 1 79 -46z m10464 -539 c1 -8 -1 -17 -5 -19
-4 -3 -7 6 -7 19 0 25 8 25 12 0z m-9481 -107 c4 -33 5 -62 2 -64 -6 -6 -57
77 -57 93 0 6 -7 16 -15 23 -24 20 -8 29 29 18 33 -10 35 -14 41 -70z m9445
68 c0 -2 -8 -10 -17 -17 -16 -13 -17 -12 -4 4 13 16 21 21 21 13z m-9115 -113
c309 -98 666 -271 1110 -538 453 -272 670 -378 980 -478 171 -56 268 -81 453
-117 79 -16 147 -31 150 -35 12 -12 -25 -34 -93 -55 -49 -16 -105 -24 -187
-27 -139 -6 -212 11 -348 84 -86 46 -292 181 -298 195 -2 5 -8 8 -14 8 -5 0
-31 18 -57 40 -54 46 -61 47 -85 21 -15 -16 -17 -30 -11 -85 4 -36 11 -66 16
-66 5 0 6 -7 3 -15 -4 -8 -2 -21 3 -28 6 -6 15 -33 21 -58 7 -26 14 -53 17
-60 3 -8 1 -20 -4 -27 -6 -10 -22 -8 -76 12 -106 41 -292 141 -390 211 -117
84 -285 234 -338 302 -23 29 -44 53 -47 53 -4 0 -15 -6 -26 -14 -17 -13 -19
-29 -22 -160 -2 -80 -6 -146 -8 -146 -8 0 -100 86 -162 150 -69 71 -244 288
-324 402 -35 48 -68 88 -74 88 -25 0 -43 -40 -64 -140 -31 -148 -26 -141 -67
-95 -68 77 -153 271 -209 473 -18 67 -36 127 -39 132 -3 6 -4 14 0 19 6 10 45
1 190 -46z m8311 -368 c1 -8 -1 -17 -5 -19 -4 -3 -7 6 -7 19 0 25 8 25 12 0z
m-405 0 c-1 -15 -24 -12 -29 3 -3 9 2 13 12 10 10 -1 17 -7 17 -13z m325 -53
c-23 -25 -25 -30 -11 -42 8 -7 12 -16 9 -21 -3 -5 0 -9 6 -9 6 0 8 -5 5 -11
-8 -12 -16 -7 -19 14 -1 8 -8 22 -14 30 -9 10 -10 17 -2 22 6 3 7 11 4 17 -4
6 -2 8 3 5 6 -4 16 0 23 8 7 8 15 15 18 15 3 0 -7 -13 -22 -28z m-106 -76 c0
-2 -8 -10 -17 -17 -16 -13 -17 -12 -4 4 13 16 21 21 21 13z m110 -35 c0 -14
-50 -71 -60 -68 -5 1 -16 -7 -25 -18 -16 -20 -16 -20 -6 1 6 12 7 25 3 29 -4
5 -2 5 4 2 7 -4 17 0 24 8 7 8 16 12 21 9 5 -3 14 6 21 20 12 27 18 33 18 17z
m-121 -113 c-5 -10 -11 -18 -12 -18 -2 0 -3 8 -3 18 0 10 6 19 13 19 8 0 9 -6
2 -19z m-7772 -121 c44 -67 119 -167 165 -223 47 -55 87 -108 91 -118 12 -31
-109 71 -237 200 l-125 125 -1 62 c-2 79 -2 77 13 77 6 -1 49 -56 94 -123z
m7732 91 c-5 -10 -14 -17 -19 -15 -5 1 -15 -7 -23 -18 -14 -18 -72 -31 -61
-13 3 4 9 6 14 3 5 -3 14 4 20 15 6 11 15 18 20 15 5 -3 13 3 19 13 5 10 17
19 25 19 11 0 13 -5 5 -19z m-178 -11 c-7 -7 -7 -14 0 -24 18 -21 4 -15 -17 8
-14 15 -15 20 -4 17 8 -2 14 3 12 10 -1 8 2 11 9 7 7 -5 8 -10 0 -18z m-1817
-235 c8 -14 -30 -138 -57 -184 -57 -98 -224 -226 -372 -286 -71 -29 -105 -50
-105 -65 0 -6 3 -7 7 -4 3 4 13 1 21 -6 11 -8 67 -12 199 -12 115 0 183 -4
183 -10 -1 -22 -190 -135 -412 -246 -86 -44 -159 -79 -162 -79 -3 0 -35 -13
-71 -30 -36 -16 -70 -30 -75 -30 -6 0 -18 -4 -28 -9 -100 -51 -463 -162 -702
-215 -1197 -264 -2435 -36 -3457 637 -68 44 -123 84 -123 87 0 4 18 10 40 14
22 3 40 10 40 14 0 4 -7 30 -16 57 -21 70 -65 267 -60 272 2 3 37 -24 78 -59
171 -150 310 -243 482 -323 105 -49 299 -116 393 -135 62 -13 133 -7 133 10 0
6 -4 10 -9 10 -11 0 -101 139 -144 223 -20 39 -29 67 -22 67 6 0 49 -24 94
-54 163 -107 345 -166 516 -166 184 0 336 53 496 172 l84 61 385 2 c473 2 774
30 1150 105 l146 30 69 -20 c144 -41 243 -54 430 -54 147 0 201 4 293 22 159
32 312 84 444 152 122 63 124 64 132 52z m1434 -132 c8 -7 29 -5 42 4 8 6 4
-2 -9 -16 -13 -15 -27 -25 -32 -23 -4 3 -17 -7 -29 -22 -12 -16 -19 -23 -16
-17 3 7 -1 17 -8 24 -12 9 -18 6 -30 -18 -11 -21 -12 -32 -4 -40 8 -8 5 -10
-8 -8 -11 2 -20 8 -20 14 -1 7 -2 13 -4 15 -7 9 -6 36 1 31 14 -8 40 16 32 29
-3 6 -1 7 6 3 13 -8 44 12 36 23 -3 7 35 7 43 1z m-397 -218 c-24 -31 -28 -42
-18 -52 10 -12 9 -12 -6 -1 -9 8 -15 16 -12 19 3 3 -1 12 -8 21 -10 14 -10 14
5 3 14 -11 18 -10 27 6 6 11 7 23 3 27 -4 5 -2 5 5 1 6 -3 14 -2 18 4 3 5 9
10 11 10 3 0 -8 -17 -25 -38z m-54 -29 c-4 -3 0 -14 9 -24 10 -11 12 -19 4
-24 -6 -4 -9 -1 -8 7 2 7 -2 12 -9 11 -6 -1 -10 5 -8 15 5 23 4 22 12 22 3 0
3 -3 0 -7z m-80 -61 c-26 -27 -26 -29 -9 -47 17 -19 16 -19 -4 -2 -19 15 -31
52 -14 42 4 -3 15 4 25 15 10 11 20 20 23 20 3 0 -6 -13 -21 -28z m73 15 c0
-2 -10 -12 -22 -23 l-23 -19 19 23 c18 21 26 27 26 19z m-175 -105 c-3 -3 0
-11 5 -17 7 -9 5 -17 -7 -26 -16 -12 -17 -12 -6 2 10 12 10 18 1 27 -7 7 -8
12 -4 12 5 0 2 8 -5 18 -13 15 -12 16 4 3 9 -8 15 -16 12 -19z m-28 1 c-4 -3
-2 -12 4 -19 7 -8 6 -14 -2 -20 -7 -4 -9 -3 -5 4 3 6 2 13 -4 17 -10 6 -5 25
7 25 4 0 3 -3 0 -7z m82 -89 c-6 -7 -19 -11 -30 -9 -13 3 -23 -3 -28 -18 -5
-13 -16 -29 -24 -35 -13 -11 -15 -10 -12 5 2 10 4 25 5 33 1 10 4 9 10 -5 5
-12 9 -14 9 -6 1 24 29 47 55 47 19 0 23 -3 15 -12z m-3625 -2726 c-3 -5 -9
-6 -14 -3 -5 3 -14 -4 -20 -15 -6 -11 -15 -18 -20 -15 -5 3 -13 -2 -18 -12
-13 -22 -43 -27 -34 -5 4 11 7 12 10 3 2 -7 13 1 27 21 16 24 31 34 48 34 14
0 23 -4 21 -8z m-137 -90 c-13 -31 -52 -52 -40 -21 4 11 8 11 13 3 5 -8 11 0
18 19 6 17 13 31 17 31 3 0 -1 -14 -8 -32z m-77 -73 c-11 -13 -41 -15 -40 -2
0 4 0 13 0 20 0 6 5 4 11 -6 13 -22 29 -13 30 16 1 18 2 18 6 4 3 -10 0 -24
-7 -32z"/>
<path d="M10414 10975 c-13 -20 -15 -38 -10 -80 9 -80 29 -132 116 -310 98
-199 113 -238 141 -378 24 -121 41 -150 78 -140 l24 6 -6 136 c-7 165 -30 263
-90 381 -24 47 -72 142 -108 211 -35 69 -71 141 -79 160 -19 43 -44 48 -66 14z"/>
<path d="M11488 8829 c-18 -10 -24 -35 -10 -41 4 -1 24 -37 44 -78 71 -141
168 -226 348 -304 56 -25 127 -60 157 -78 57 -34 163 -140 163 -162 0 -7 8
-20 18 -29 15 -13 20 -14 36 -2 17 13 17 19 7 61 -16 61 -69 143 -135 207 -42
42 -74 61 -158 95 -99 40 -232 116 -280 159 -12 10 -52 54 -91 98 -39 44 -73
81 -76 82 -3 1 -14 -2 -23 -8z"/>
<path d="M11659 8304 c-7 -9 -9 -18 -3 -22 5 -4 18 -24 29 -46 30 -58 113
-126 235 -191 123 -65 183 -116 210 -178 15 -35 17 -56 10 -127 -4 -47 -11
-93 -15 -104 -8 -19 7 -36 33 -36 12 0 72 113 72 137 0 6 5 13 12 15 7 3 11
27 11 64 0 74 -24 128 -91 207 -48 58 -71 72 -252 153 -47 22 -86 42 -88 46
-2 5 -10 8 -17 8 -7 0 -15 7 -19 15 -3 8 -12 15 -20 15 -8 0 -26 14 -39 30
-29 34 -48 38 -68 14z"/>
<path d="M5995 11963 c-129 -92 -305 -230 -305 -239 0 -4 16 -3 36 1 24 4 84
41 174 109 75 56 157 115 183 131 33 21 47 37 47 52 0 12 -4 24 -8 27 -4 2
-62 -34 -127 -81z"/>
<path d="M13430 11172 c0 -12 19 -26 26 -19 2 2 -2 10 -11 17 -9 8 -15 8 -15
2z"/>
<path d="M4531 10227 c-167 -350 -298 -761 -360 -1132 -42 -246 -52 -367 -55
-650 l-4 -280 9 245 c11 326 15 360 58 605 50 286 110 513 202 766 58 160 189
460 218 500 16 22 17 28 6 50 -13 23 -16 19 -74 -104z"/>
<path d="M13958 9816 c-197 -121 -197 -121 -156 -124 36 -3 57 7 198 92 87 53
163 96 170 96 7 0 10 7 6 16 -3 9 -6 22 -6 30 0 8 -3 14 -7 13 -5 -1 -97 -56
-205 -123z"/>
<path d="M14376 8785 c-91 -32 -137 -117 -135 -249 l1 -71 10 63 c17 123 67
189 164 218 64 19 138 17 204 -5 l55 -19 -35 29 c-19 16 -50 34 -70 39 -50 14
-148 12 -194 -5z"/>
<path d="M14030 8681 c0 -10 9 -21 20 -24 18 -5 18 -4 3 19 -19 29 -23 30 -23
5z"/>
<path d="M11088 8083 c6 -2 18 -2 25 0 6 3 1 5 -13 5 -14 0 -19 -2 -12 -5z"/>
<path d="M11048 8073 c7 -3 16 -2 19 1 4 3 -2 6 -13 5 -11 0 -14 -3 -6 -6z"/>
<path d="M7470 7760 c-20 -6 -21 -8 -5 -8 11 0 34 4 50 8 27 7 27 8 5 8 -14 0
-36 -4 -50 -8z"/>
<path d="M4110 7447 c-30 -5 -50 -11 -45 -13 6 -2 44 2 85 10 41 8 62 14 45
14 -16 0 -55 -5 -85 -11z"/>
<path d="M4238 7453 c7 -3 16 -2 19 1 4 3 -2 6 -13 5 -11 0 -14 -3 -6 -6z"/>
<path d="M4417 7453 c18 -2 50 -2 70 0 21 2 7 4 -32 4 -38 0 -55 -2 -38 -4z"/>
<path d="M7618 7443 c-8 -10 -18 -31 -22 -46 -4 -16 -19 -35 -35 -44 -31 -18
-71 -74 -71 -99 0 -9 13 -30 30 -45 43 -42 88 -40 140 7 21 19 42 44 45 55 4
11 10 17 15 14 12 -8 22 44 14 79 -10 44 -52 96 -79 96 -12 0 -29 -8 -37 -17z"/>
<path d="M4583 7443 c9 -2 23 -2 30 0 6 3 -1 5 -18 5 -16 0 -22 -2 -12 -5z"/>
<path d="M4678 7433 c7 -3 16 -2 19 1 4 3 -2 6 -13 5 -11 0 -14 -3 -6 -6z"/>
<path d="M4028 7423 c7 -3 16 -2 19 1 4 3 -2 6 -13 5 -11 0 -14 -3 -6 -6z"/>
<path d="M3970 7410 c-18 -12 -2 -12 25 0 13 6 15 9 5 9 -8 0 -22 -4 -30 -9z"/>
<path d="M3875 7370 c-3 -6 1 -7 9 -4 18 7 21 14 7 14 -6 0 -13 -4 -16 -10z"/>
<path d="M6575 7169 c-11 -17 -2 -18 25 -4 24 14 24 14 3 15 -12 0 -25 -5 -28
-11z"/>
<path d="M4463 6789 c-18 -5 -33 -12 -33 -15 0 -4 8 -3 18 1 9 4 60 11 112 15
l95 7 -80 1 c-44 0 -95 -4 -112 -9z"/>
<path d="M9618 6503 c6 -2 18 -2 25 0 6 3 1 5 -13 5 -14 0 -19 -2 -12 -5z"/>
<path d="M9238 6493 c6 -2 18 -2 25 0 6 3 1 5 -13 5 -14 0 -19 -2 -12 -5z"/>
<path d="M9538 6493 c12 -2 32 -2 45 0 12 2 2 4 -23 4 -25 0 -35 -2 -22 -4z"/>
<path d="M9367 6483 c18 -2 50 -2 70 0 21 2 7 4 -32 4 -38 0 -55 -2 -38 -4z"/>
<path d="M9478 5183 c7 -3 16 -2 19 1 4 3 -2 6 -13 5 -11 0 -14 -3 -6 -6z"/>
<path d="M9428 5173 c6 -2 18 -2 25 0 6 3 1 5 -13 5 -14 0 -19 -2 -12 -5z"/>
<path d="M9378 5163 c6 -2 18 -2 25 0 6 3 1 5 -13 5 -14 0 -19 -2 -12 -5z"/>
<path d="M9323 5153 c9 -2 23 -2 30 0 6 3 -1 5 -18 5 -16 0 -22 -2 -12 -5z"/>
<path d="M9263 5143 c9 -2 23 -2 30 0 6 3 -1 5 -18 5 -16 0 -22 -2 -12 -5z"/>
<path d="M8408 5133 c7 -3 16 -2 19 1 4 3 -2 6 -13 5 -11 0 -14 -3 -6 -6z"/>
<path d="M9183 5133 c9 -2 25 -2 35 0 9 3 1 5 -18 5 -19 0 -27 -2 -17 -5z"/>
<path d="M8493 5123 c9 -2 25 -2 35 0 9 3 1 5 -18 5 -19 0 -27 -2 -17 -5z"/>
<path d="M9083 5123 c15 -2 37 -2 50 0 12 2 0 4 -28 4 -27 0 -38 -2 -22 -4z"/>
<path d="M8628 5113 c23 -2 61 -2 85 0 23 2 4 4 -43 4 -47 0 -66 -2 -42 -4z"/>
<path d="M8898 5113 c28 -2 76 -2 105 0 28 2 5 3 -53 3 -58 0 -81 -1 -52 -3z"/>
<path d="M14029 6938 c5 -13 23 -26 47 -33 48 -14 137 -59 184 -92 33 -23 33
-23 -5 12 -43 40 -114 82 -187 114 l-47 20 8 -21z"/>
<path d="M3482 6809 c-221 -28 -504 -147 -631 -265 -72 -66 -103 -125 -99
-186 l3 -43 18 52 c34 98 135 185 311 269 167 79 367 134 487 134 l62 0 -23
25 c-25 27 -30 27 -128 14z"/>
<path d="M13056 5393 c-6 -14 -5 -15 5 -6 7 7 10 15 7 18 -3 3 -9 -2 -12 -12z"/>
<path d="M12518 5023 c-6 -8 -8 -16 -4 -20 3 -3 6 -1 6 6 0 7 4 10 9 6 5 -3
12 -1 16 5 4 6 10 8 15 5 5 -3 11 -2 14 3 8 14 -44 9 -56 -5z"/>
<path d="M12455 4979 c-4 -6 -5 -12 -2 -15 2 -3 7 2 10 11 7 17 1 20 -8 4z"/>
<path d="M8305 1829 c-4 -6 -5 -12 -2 -15 2 -3 7 2 10 11 7 17 1 20 -8 4z"/>
<path d="M10938 14558 c-3 -7 26 -22 71 -38 185 -65 541 -229 778 -358 257
-140 521 -307 753 -476 72 -53 130 -93 130 -91 0 2 -44 37 -97 78 -368 277
-739 500 -1169 705 -141 67 -437 192 -455 192 -4 0 -9 -5 -11 -12z"/>
<path d="M5130 14043 c-386 -250 -626 -425 -876 -637 -166 -141 -579 -554
-720 -720 -413 -486 -775 -1059 -1022 -1616 -334 -756 -534 -1622 -546 -2365
-2 -115 -2 -169 0 -120 50 1318 472 2546 1243 3620 492 686 1153 1303 1879
1754 97 59 108 69 97 84 -15 21 -23 21 -55 0z"/>
<path d="M12695 13570 c10 -11 20 -20 23 -20 3 0 -3 9 -13 20 -10 11 -20 20
-23 20 -3 0 3 -9 13 -20z"/>
<path d="M12730 13546 c0 -2 8 -10 18 -17 15 -13 16 -12 3 4 -13 16 -21 21
-21 13z"/>
<path d="M12795 13490 c10 -11 20 -20 23 -20 3 0 -3 9 -13 20 -10 11 -20 20
-23 20 -3 0 3 -9 13 -20z"/>
<path d="M12840 13456 c0 -2 8 -10 18 -17 15 -13 16 -12 3 4 -13 16 -21 21
-21 13z"/>
<path d="M12900 13406 c0 -2 8 -10 18 -17 15 -13 16 -12 3 4 -13 16 -21 21
-21 13z"/>
<path d="M12980 13336 c0 -2 8 -10 18 -17 15 -13 16 -12 3 4 -13 16 -21 21
-21 13z"/>
<path d="M4003 12176 c-22 -32 -46 -55 -56 -56 -10 0 -63 23 -117 51 -114 58
-111 59 -189 -27 -70 -76 -91 -121 -90 -186 l0 -53 15 47 c28 91 144 218 199
218 11 0 59 -18 105 -41 54 -26 92 -38 106 -35 22 6 84 88 84 112 0 32 -22 20
-57 -30z"/>
<path d="M13974 11650 c-24 -51 -58 -85 -199 -191 -156 -118 -197 -173 -180
-236 l8 -28 8 30 c13 48 61 97 187 193 138 105 177 146 192 203 17 63 7 81
-16 29z"/>
<path d="M4167 11595 c-201 -109 -287 -147 -367 -162 -73 -15 -85 -15 -147 1
-37 9 -90 30 -118 46 -46 28 -47 28 -20 5 91 -78 201 -113 300 -96 75 13 178
55 272 109 124 72 194 103 246 109 90 10 82 43 -11 43 -44 0 -67 -8 -155 -55z"/>
<path d="M3194 11236 c-113 -26 -191 -72 -290 -171 -80 -80 -96 -103 -147
-205 -70 -143 -87 -205 -94 -347 -5 -89 -3 -113 7 -113 7 0 67 -25 132 -55 65
-30 123 -55 128 -55 5 0 22 26 38 59 l28 58 -103 74 -103 74 0 46 c0 25 6 67
14 92 8 26 12 47 10 47 -3 0 4 17 15 38 28 54 87 107 156 139 55 26 70 28 175
28 141 -1 226 -22 385 -99 167 -80 270 -171 323 -282 24 -52 27 -71 27 -159 0
-114 -22 -179 -78 -233 l-32 -30 -125 24 c-69 13 -128 24 -131 24 -7 0 -62
-121 -57 -125 2 -1 62 -25 135 -54 103 -41 136 -50 151 -42 40 21 144 145 196
234 64 108 92 189 106 302 22 176 -23 325 -141 476 -146 184 -496 307 -725
255z"/>
<path d="M4135 11120 c10 -11 20 -20 23 -20 3 0 -3 9 -13 20 -10 11 -20 20
-23 20 -3 0 3 -9 13 -20z"/>
<path d="M4185 11080 c10 -11 20 -20 23 -20 3 0 -3 9 -13 20 -10 11 -20 20
-23 20 -3 0 3 -9 13 -20z"/>
<path d="M4312 11058 c-33 -19 -58 -27 -65 -21 -7 4 -4 0 6 -9 23 -21 48 -23
94 -6 27 10 33 17 33 40 0 34 -1 34 -68 -4z"/>
<path d="M13895 10838 c-432 -230 -405 -213 -405 -249 l0 -29 38 24 c20 13
136 76 257 141 121 65 262 140 314 168 52 28 107 53 123 56 28 6 28 6 10 33
l-18 27 -319 -171z"/>
<path d="M3082 10919 c-108 -19 -210 -97 -254 -196 -19 -43 -38 -163 -25 -163
3 0 15 31 26 69 36 119 120 203 239 237 88 26 242 15 359 -24 105 -36 215 -89
288 -139 l50 -34 -35 32 c-162 146 -469 249 -648 218z"/>
<path d="M14353 10910 c-38 -22 -42 -35 -14 -43 26 -6 61 19 61 44 0 24 -7 24
-47 -1z"/>
<path d="M4075 10514 c-15 -141 -76 -302 -159 -418 -44 -62 -149 -166 -167
-166 -5 0 -54 18 -109 40 -108 43 -134 49 -110 26 19 -18 214 -96 241 -96 28
0 122 91 175 171 81 122 130 270 141 424 7 100 -2 114 -12 19z"/>
<path d="M2710 10349 c0 -15 199 -109 231 -109 32 0 59 39 59 85 0 39 -15 30
-34 -20 -10 -25 -23 -45 -30 -45 -6 0 -45 16 -86 36 -112 53 -140 64 -140 53z"/>
<path d="M14390 10079 c-83 -52 -95 -63 -93 -85 3 -35 11 -41 26 -21 10 14
162 110 187 119 13 4 0 48 -14 47 -6 0 -54 -27 -106 -60z"/>
<path d="M2487 10058 c-9 -25 -101 -597 -97 -601 3 -2 26 -7 52 -10 l47 -6 15
53 c9 30 16 64 16 75 0 27 -9 27 255 -17 l220 -37 -3 -45 c-3 -60 -20 -110
-46 -139 -40 -45 -72 -51 -273 -51 -103 0 -205 -5 -226 -11 -49 -13 -100 -59
-127 -113 -27 -56 -50 -179 -50 -266 l0 -68 51 -7 c30 -4 55 -3 61 3 5 5 14
37 21 71 l12 61 150 0 c243 0 311 27 390 150 25 39 45 76 46 83 1 6 7 -26 15
-73 17 -99 43 -159 96 -216 77 -83 211 -111 311 -64 56 26 132 107 167 176 14
27 28 51 32 54 15 12 41 135 93 435 30 176 57 330 60 342 4 19 0 22 -46 28
-60 8 -62 7 -80 -77 -7 -32 -16 -58 -20 -58 -24 0 -995 165 -1029 175 -12 4
-14 20 -12 78 l3 74 -32 7 c-47 9 -66 7 -72 -6z m859 -603 c110 -19 208 -37
220 -40 21 -5 21 -6 7 -77 -29 -157 -85 -220 -202 -226 -80 -5 -131 8 -192 46
-76 48 -93 112 -80 285 4 41 7 47 26 47 12 0 112 -16 221 -35z"/>
<path d="M3115 9433 c-3 -21 -8 -50 -10 -64 -2 -15 0 -39 5 -55 8 -29 8 -29 9
8 1 55 17 87 46 94 15 4 105 -8 207 -26 129 -23 183 -29 191 -21 6 6 8 13 5
17 -5 4 -415 82 -445 84 -1 0 -5 -17 -8 -37z"/>
<path d="M14621 10021 c-34 -9 -37 -29 -7 -37 28 -7 56 9 56 32 0 15 -11 16
-49 5z"/>
<path d="M2602 9945 c0 -16 2 -22 5 -12 2 9 2 23 0 30 -3 6 -5 -1 -5 -18z"/>
<path d="M3777 9760 c-4 -8 -27 -136 -52 -285 -59 -348 -68 -384 -115 -481
-90 -186 -247 -258 -413 -190 -68 28 -60 12 14 -28 133 -73 288 -30 379 106
58 88 85 186 146 542 49 286 61 385 41 336z"/>
<path d="M13450 9590 c0 -5 9 -14 20 -20 12 -6 265 -33 563 -60 298 -27 563
-52 589 -55 42 -5 46 -4 41 14 -6 24 42 18 -658 81 -642 58 -555 52 -555 40z"/>
<path d="M2516 9490 l-18 -70 -35 0 c-31 0 -34 -2 -23 -16 8 -8 25 -14 39 -12
21 2 32 15 53 60 15 31 36 59 46 62 11 4 104 -7 207 -24 152 -25 190 -29 196
-18 6 8 2 15 -9 20 -19 8 -389 68 -419 68 -15 0 -22 -15 -37 -70z"/>
<path d="M14768 9353 c-22 -6 -23 -17 -3 -33 19 -16 65 2 65 25 0 15 -24 18
-62 8z"/>
<path d="M2982 9095 c-25 -55 -73 -104 -128 -131 -48 -23 -74 -28 -197 -36
-78 -5 -161 -6 -184 -3 l-42 6 -22 -76 -22 -76 -41 7 -41 6 19 -21 c34 -37 67
-25 96 37 14 29 32 57 40 62 8 6 53 10 100 10 249 1 340 30 413 128 34 48 38
58 30 85 l-8 30 -13 -28z"/>
<path d="M15461 9104 c0 -11 3 -14 6 -6 3 7 2 16 -1 19 -3 4 -6 -2 -5 -13z"/>
<path d="M15472 8995 c0 -16 2 -22 5 -12 2 9 2 23 0 30 -3 6 -5 -1 -5 -18z"/>
<path d="M15483 8845 c0 -27 2 -38 4 -22 2 15 2 37 0 50 -2 12 -4 0 -4 -28z"/>
<path d="M15491 8468 c-5 -1093 -241 -2088 -727 -3058 -815 -1625 -2232 -2859
-3959 -3446 -1546 -527 -3227 -496 -4745 86 -651 249 -1318 629 -1827 1039
-29 24 -53 40 -53 38 0 -10 237 -194 384 -298 927 -659 2006 -1082 3121 -1224
337 -43 454 -50 860 -50 421 0 524 5 800 35 845 95 1619 325 2375 705 644 325
1202 724 1719 1230 1168 1144 1870 2610 2037 4255 15 151 32 892 21 935 -2 11
-5 -100 -6 -247z"/>
<path d="M2860 8579 c-87 -13 -217 -59 -286 -100 -121 -73 -236 -232 -269
-370 -20 -84 -18 -227 3 -309 25 -95 85 -195 166 -276 154 -154 387 -216 636
-168 226 42 391 156 480 330 19 38 38 71 41 74 11 8 28 81 35 150 7 75 -8 187
-36 268 -27 77 -113 205 -174 258 -59 51 -165 106 -251 129 -74 20 -258 27
-345 14z m445 -344 c90 -19 170 -60 208 -107 27 -33 31 -47 34 -115 4 -67 1
-84 -19 -123 -59 -115 -232 -184 -529 -211 -328 -30 -552 44 -588 194 -13 53
-6 137 15 178 41 81 195 152 399 183 124 19 391 20 480 1z"/>
<path d="M2900 8219 c-181 -20 -338 -72 -412 -138 -49 -43 -68 -87 -67 -158 1
-50 2 -53 8 -23 37 181 282 283 681 284 181 0 267 -14 350 -59 l45 -25 -39 35
c-21 19 -62 43 -91 54 -102 38 -294 50 -475 30z"/>
<path d="M14870 8250 l-5 -285 -40 -5 -40 -5 24 -17 c25 -18 57 -10 67 15 2 7
3 140 2 297 l-3 285 -5 -285z"/>
<path d="M1964 8185 c0 -49 1 -71 3 -48 2 23 2 64 0 90 -2 26 -3 8 -3 -42z"/>
<path d="M13800 8087 c45 -22 49 -22 488 -19 433 2 442 3 442 22 0 20 -8 20
-487 20 l-488 -1 45 -22z"/>
<path d="M1972 7975 c0 -16 2 -22 5 -12 2 9 2 23 0 30 -3 6 -5 -1 -5 -18z"/>
<path d="M3678 7899 c-9 -91 -45 -201 -90 -276 -176 -292 -657 -400 -996 -224
-59 31 -70 34 -47 15 171 -142 470 -181 723 -95 112 39 182 83 259 165 107
113 168 273 161 425 l-3 66 -7 -76z"/>
<path d="M15259 7156 c-1 -3 -2 -9 -3 -13 -1 -5 -5 -14 -9 -20 -5 -7 -5 -13
-1 -13 4 0 0 -8 -9 -18 -9 -9 -20 -29 -26 -42 -8 -22 -10 -22 -11 -5 -1 19 -2
19 -9 2 -4 -10 -10 -18 -15 -17 -14 3 -66 -53 -59 -63 4 -6 0 -8 -9 -4 -19 7
-52 -26 -67 -65 -8 -20 -7 -29 5 -39 8 -7 14 -8 13 -3 0 5 2 20 6 32 5 16 10
20 15 12 5 -9 10 -6 15 9 3 11 11 21 16 21 6 0 8 -4 5 -9 -3 -5 2 -15 12 -22
15 -12 16 -12 5 2 -11 13 -9 19 10 37 16 15 27 19 35 12 9 -7 9 -7 2 2 -5 7
-10 19 -10 27 0 11 4 10 15 -5 15 -18 15 -18 8 0 -4 13 -3 17 5 12 6 -3 13 -2
17 4 4 6 11 7 17 4 6 -4 8 -2 5 3 -7 10 16 37 24 29 2 -2 5 5 6 17 1 12 4 41
7 65 2 23 0 45 -5 48 -5 3 -10 3 -10 0z m7 -58 c-12 -64 -46 -108 -79 -103
-10 2 -21 -4 -24 -13 -10 -29 -34 -51 -49 -45 -8 3 -17 -3 -20 -12 -5 -12 -9
-13 -14 -5 -5 8 -11 0 -18 -19 -6 -17 -13 -31 -16 -31 -9 0 14 54 31 72 8 9
21 14 29 11 8 -3 17 4 23 19 9 24 41 57 41 43 0 -4 6 -2 13 4 8 6 17 8 20 5 4
-4 11 5 17 20 9 25 41 75 48 76 1 0 0 -10 -2 -22z"/>
<path d="M15233 7053 c-10 -21 -23 -38 -30 -38 -6 0 -14 -3 -17 -6 -3 -3 1 -6
9 -6 18 0 37 22 53 60 17 41 5 33 -15 -10z"/>
<path d="M15153 6998 c-19 -30 -31 -58 -23 -53 5 3 15 19 24 35 15 30 14 41
-1 18z"/>
<path d="M15149 6923 c-13 -16 -12 -17 4 -4 9 7 17 15 17 17 0 8 -8 3 -21 -13z"/>
<path d="M15164 6908 l-19 -23 23 19 c21 18 27 26 19 26 -2 0 -12 -10 -23 -22z"/>
<path d="M15103 6885 c0 -8 4 -12 9 -9 5 3 6 10 3 15 -9 13 -12 11 -12 -6z"/>
<path d="M15075 6871 c-3 -5 -2 -12 3 -15 5 -3 9 1 9 9 0 17 -3 19 -12 6z"/>
<path d="M14562 6665 c-1 -27 -9 -81 -17 -120 -16 -75 -202 -632 -218 -652 -6
-8 -19 -10 -36 -6 -23 6 -25 5 -12 -10 16 -20 54 -22 70 -3 18 22 188 535 206
622 9 45 14 110 12 150 -2 56 -3 60 -5 19z"/>
<path d="M3992 6565 c0 -16 2 -22 5 -12 2 9 2 23 0 30 -3 6 -5 -1 -5 -18z"/>
<path d="M3992 6446 c-6 -128 -75 -269 -182 -377 -241 -243 -650 -311 -918
-152 l-57 33 35 -30 c197 -168 521 -173 810 -13 91 51 218 180 258 263 43 89
64 176 59 252 -2 36 -4 46 -5 24z"/>
<path d="M14300 6365 c-7 -8 -15 -13 -19 -10 -10 6 -7 -62 3 -72 4 -4 6 -1 4
7 -1 8 3 15 10 16 6 1 15 2 18 3 4 0 2 7 -3 14 -13 17 -10 43 6 39 7 -1 10 2
6 8 -8 13 -10 13 -25 -5z m-3 -22 c-4 -3 -2 -11 3 -18 7 -8 5 -12 -4 -12 -8 0
-12 7 -11 16 5 22 4 21 12 21 3 0 3 -3 0 -7z"/>
<path d="M14320 6341 c0 -6 4 -13 10 -16 6 -3 7 1 4 9 -7 18 -14 21 -14 7z"/>
<path d="M14246 6324 c-3 -8 -9 -13 -14 -10 -4 2 -8 -11 -8 -29 0 -31 2 -33
16 -20 9 8 21 12 25 8 5 -5 4 -1 -2 7 -6 8 -9 25 -7 38 4 25 -1 29 -10 6z m0
-29 c-1 -8 -5 -17 -8 -21 -5 -4 -4 16 1 34 3 9 9 -1 7 -13z"/>
<path d="M14040 6117 c0 -16 188 -79 196 -65 8 13 10 12 -89 47 -100 35 -107
36 -107 18z"/>
<path d="M14241 6009 c-15 -73 -8 -90 8 -22 7 26 14 56 17 66 3 9 1 17 -4 17
-5 0 -15 -27 -21 -61z"/>
<path d="M13859 6038 c-4 -12 -5 -57 0 -53 6 6 10 55 4 55 -1 0 -3 -1 -4 -2z"/>
<path d="M13821 6007 c-8 -10 -7 -14 2 -14 8 0 14 6 14 14 0 7 -1 13 -2 13 -2
0 -8 -6 -14 -13z"/>
<path d="M13774 5969 c-10 -12 -18 -24 -16 -28 1 -3 -7 -6 -17 -6 -22 0 -61
-32 -58 -49 1 -6 -5 -9 -13 -8 -8 2 -12 0 -8 -4 4 -4 2 -14 -5 -23 -10 -14
-10 -14 4 -4 12 10 18 10 28 0 10 -9 12 -9 9 3 -2 8 3 14 10 13 6 -2 11 3 10
10 -2 7 6 12 18 11 11 -1 21 5 21 12 0 7 -3 12 -6 11 -3 -1 -7 1 -8 6 -2 4 -1
6 0 5 2 -2 10 2 18 8 8 6 22 10 32 8 11 -1 16 1 12 4 -4 4 -11 7 -16 7 -5 0
-8 5 -6 10 1 6 5 9 8 8 3 -1 6 5 6 13 0 18 0 18 -23 -7z m-47 -46 c-4 -3 -1
-13 5 -22 7 -9 8 -13 3 -8 -4 4 -20 -3 -34 -15 -14 -13 -19 -15 -12 -5 7 9 10
17 6 17 -5 0 0 9 10 20 10 11 20 20 23 20 3 0 2 -3 -1 -7z"/>
<path d="M13634 5755 c0 -49 1 -71 3 -48 2 23 2 64 0 90 -2 26 -3 8 -3 -42z"/>
<path d="M3895 5795 c-257 -69 -481 -266 -555 -489 -47 -142 -36 -274 35 -423
83 -175 185 -298 319 -387 44 -30 88 -56 97 -58 8 -1 92 50 186 114 94 65 177
120 185 123 7 3 29 -10 47 -29 l34 -35 28 19 c15 11 33 20 40 20 8 0 8 5 -3
18 -39 43 -326 461 -320 466 3 3 1 6 -4 6 -14 -1 -90 -70 -77 -70 15 0 73
-111 73 -137 -1 -12 -63 -62 -176 -142 -188 -133 -179 -130 -226 -76 -32 36
-57 139 -59 239 -2 89 0 99 31 162 37 76 139 189 239 265 90 68 250 146 341
165 183 39 347 -32 428 -184 45 -85 43 -100 -30 -179 -35 -38 -73 -80 -85 -94
l-23 -25 35 -48 c19 -27 36 -50 38 -52 2 -2 53 32 113 76 60 44 114 80 121 80
18 0 16 28 -8 106 -28 93 -76 181 -158 292 -110 149 -233 239 -377 277 -71 18
-221 19 -289 0z"/>
<path d="M13811 5748 c-18 -28 -30 -55 -28 -61 2 -6 18 13 35 42 21 34 37 49
45 45 6 -4 70 -47 141 -96 71 -49 130 -87 132 -85 3 3 -241 176 -282 200 -7 4
-25 -15 -43 -45z"/>
<path d="M13180 5555 c-13 -14 -20 -25 -16 -25 5 0 2 -8 -5 -17 -7 -10 -1 -7
14 6 15 14 27 21 27 16 0 -5 5 -4 11 2 7 7 8 17 2 27 -8 15 -12 13 -33 -9z"/>
<path d="M13085 5530 c-10 -11 -14 -20 -10 -20 4 0 0 -9 -11 -21 -21 -23 -21
-28 -3 -40 18 -11 32 0 19 16 -7 9 -6 16 5 25 8 7 13 16 10 20 -3 5 0 12 6 16
7 4 9 3 5 -4 -3 -6 -2 -13 4 -17 5 -3 10 -12 10 -18 0 -8 -3 -8 -9 1 -6 10
-10 10 -21 -3 -11 -13 -9 -15 11 -12 18 3 24 11 25 31 1 38 -19 51 -41 26z"/>
<path d="M13891 5120 c-251 -402 -263 -420 -284 -408 -20 10 -21 10 -8 -5 22
-27 57 -21 84 16 50 66 481 763 485 783 2 12 0 24 -5 27 -6 4 -128 -183 -272
-413z"/>
<path d="M4175 5523 c-216 -31 -507 -238 -600 -427 -32 -64 -39 -88 -41 -153
l-4 -78 14 61 c44 191 223 380 470 494 106 49 174 64 278 58 70 -3 93 -9 143
-36 56 -31 57 -31 35 -7 -57 60 -198 102 -295 88z"/>
<path d="M13280 5488 c0 -7 22 -26 48 -42 312 -191 445 -267 458 -264 16 3
201 285 192 293 -2 2 -44 -61 -93 -140 -50 -80 -96 -145 -104 -145 -15 0 -14
-1 -279 163 -107 66 -196 126 -199 134 -6 16 -23 17 -23 1z"/>
<path d="M13005 5420 c-10 -11 -14 -20 -9 -20 5 0 1 -7 -9 -14 -13 -10 -17
-24 -15 -45 5 -44 23 -39 25 6 1 21 2 40 3 43 1 3 2 8 1 13 -1 6 14 11 31 8 4
0 5 6 2 14 -8 19 -7 19 -29 -5z m-18 -82 c-3 -7 -5 -2 -5 12 0 14 2 19 5 13 2
-7 2 -19 0 -25z"/>
<path d="M13125 5391 c-3 -5 -2 -12 3 -15 5 -3 9 1 9 9 0 17 -3 19 -12 6z"/>
<path d="M13081 5367 c-21 -23 -21 -25 -4 -38 15 -11 16 -11 6 1 -10 11 -9 18
9 37 12 13 19 23 16 23 -2 0 -14 -11 -27 -23z"/>
<path d="M13099 5353 c-13 -16 -12 -17 4 -4 9 7 17 15 17 17 0 8 -8 3 -21 -13z"/>
<path d="M12884 5329 c-7 -13 -5 -15 24 -23 27 -9 29 5 2 21 -13 9 -21 9 -26
2z"/>
<path d="M12941 5270 c-6 -25 -20 -67 -30 -95 -11 -27 -22 -59 -26 -70 l-7
-20 17 20 c20 25 69 179 62 197 -2 7 -10 -7 -16 -32z"/>
<path d="M13175 5140 c-3 -5 0 -10 8 -10 12 0 160 -89 355 -213 23 -15 42 -24
42 -19 0 7 -381 252 -393 252 -3 0 -9 -4 -12 -10z"/>
<path d="M4633 5019 c-68 -50 -123 -94 -123 -99 0 -4 8 -11 17 -14 11 -5 41
10 87 41 93 64 146 115 146 141 0 12 -1 22 -2 22 -2 0 -58 -41 -125 -91z"/>
<path d="M4847 4994 c-16 -19 -25 -34 -20 -34 6 0 29 -23 52 -50 40 -48 42
-52 28 -74 -16 -24 -555 -641 -642 -734 l-51 -55 -57 41 c-31 23 -59 42 -62
42 -3 0 -18 -14 -34 -32 l-28 -31 66 -57 c36 -32 210 -184 386 -339 l320 -282
106 109 c58 60 112 111 120 114 10 4 6 9 -12 16 -14 6 -33 22 -42 36 -36 55
-49 53 -143 -24 -47 -39 -90 -70 -94 -68 -5 2 -60 48 -123 103 -62 55 -126
110 -140 122 -15 13 -27 27 -27 33 0 6 30 45 67 88 203 234 257 292 272 292
27 0 166 -129 164 -151 -2 -11 -18 -42 -37 -70 l-34 -51 35 -31 c34 -30 35
-30 52 -11 10 10 68 76 130 146 61 69 116 128 122 130 6 2 -8 18 -30 36 l-41
33 -22 -21 c-13 -12 -39 -35 -59 -51 l-37 -29 -86 76 c-47 41 -86 80 -86 85 0
13 289 337 307 343 16 7 262 -203 262 -224 0 -8 -26 -58 -58 -109 -55 -88 -58
-96 -41 -105 10 -6 36 -25 57 -43 l39 -32 64 82 c36 45 82 101 102 123 l38 41
-365 322 c-201 177 -371 324 -378 326 -6 2 -25 -12 -40 -31z"/>
<path d="M14196 4985 c-9 -14 -23 -37 -32 -52 l-16 -28 20 24 c24 29 55 81 49
81 -3 0 -12 -11 -21 -25z"/>
<path d="M5530 4906 c0 -2 8 -10 18 -17 15 -13 16 -12 3 4 -13 16 -21 21 -21
13z"/>
<path d="M13573 4840 c-16 -33 -27 -60 -23 -60 8 0 62 111 57 116 -2 3 -17
-23 -34 -56z"/>
<path d="M14106 4843 c-20 -32 -27 -46 -14 -31 26 30 62 88 55 88 -2 0 -21
-26 -41 -57z"/>
<path d="M5600 4846 c0 -2 8 -10 18 -17 15 -13 16 -12 3 4 -13 16 -21 21 -21
13z"/>
<path d="M12485 4820 c-3 -5 0 -10 8 -10 8 0 38 -15 66 -34 67 -45 65 -37 -2
14 -58 43 -63 45 -72 30z"/>
<path d="M5665 4790 c10 -11 20 -20 23 -20 3 0 -3 9 -13 20 -10 11 -20 20 -23
20 -3 0 3 -9 13 -20z"/>
<path d="M5700 4767 c0 -3 18 -20 40 -37 22 -17 40 -29 40 -27 0 3 -18 20 -40
37 -22 17 -40 29 -40 27z"/>
<path d="M14010 4705 c-17 -25 -29 -45 -26 -45 3 0 19 20 36 45 17 25 29 45
26 45 -3 0 -19 -20 -36 -45z"/>
<path d="M12650 4706 c0 -2 8 -10 18 -17 15 -13 16 -12 3 4 -13 16 -21 21 -21
13z"/>
<path d="M5820 4670 c59 -53 397 -273 551 -359 576 -319 1222 -511 1889 -562
198 -15 667 -6 850 16 653 78 1264 278 1802 589 129 74 323 196 312 196 -60
-3 -135 -35 -259 -109 -572 -343 -1201 -555 -1900 -638 -214 -25 -788 -25
-995 0 -837 102 -1561 382 -2240 867 l-45 32 35 -32z"/>
<path d="M11976 4681 c-4 -5 -2 -12 3 -15 5 -4 12 -2 15 3 4 5 2 12 -3 15 -5
4 -12 2 -15 -3z"/>
<path d="M12044 4640 c4 -23 2 -29 -7 -25 -6 4 -5 0 3 -7 8 -7 28 -38 44 -68
43 -82 99 -154 200 -258 91 -94 184 -174 241 -206 30 -17 30 -17 5 1 -85 62
-213 178 -276 250 -112 129 -161 209 -184 301 -12 48 -36 59 -26 12z"/>
<path d="M13944 4613 c-15 -21 -39 -54 -52 -73 l-24 -35 26 30 c34 39 89 115
83 115 -3 0 -17 -17 -33 -37z"/>
<path d="M3994 4524 c-93 -64 -174 -118 -180 -121 -14 -5 -106 39 -154 75 -19
14 -29 18 -21 9 22 -28 146 -107 178 -113 26 -5 52 9 194 105 90 61 172 111
181 111 10 0 18 4 18 8 0 9 -33 42 -42 42 -2 0 -81 -52 -174 -116z"/>
<path d="M4283 4598 c-38 -27 -40 -34 -12 -43 24 -8 59 19 59 47 0 24 -8 23
-47 -4z"/>
<path d="M5059 4483 c-62 -71 -126 -143 -143 -161 -27 -29 -29 -34 -15 -48 14
-13 28 -1 139 123 136 153 158 170 193 152 16 -9 13 -2 -12 25 -19 20 -38 36
-42 36 -3 0 -57 -57 -120 -127z"/>
<path d="M13844 4478 l-19 -23 23 19 c21 18 27 26 19 26 -2 0 -12 -10 -23 -22z"/>
<path d="M13809 4433 c-13 -16 -12 -17 4 -4 16 13 21 21 13 21 -2 0 -10 -8
-17 -17z"/>
<path d="M5370 4436 c0 -2 8 -10 18 -17 15 -13 16 -12 3 4 -13 16 -21 21 -21
13z"/>
<path d="M13208 4363 c-11 -140 -79 -281 -189 -392 -123 -122 -251 -181 -414
-188 -146 -7 -270 27 -393 107 -46 30 -46 30 -15 3 49 -43 136 -93 211 -121
90 -33 240 -41 331 -17 212 55 378 211 453 425 18 50 38 250 26 250 -3 0 -8
-30 -10 -67z"/>
<path d="M13774 4388 l-19 -23 23 19 c21 18 27 26 19 26 -2 0 -12 -10 -23 -22z"/>
<path d="M13734 4338 l-19 -23 23 19 c21 18 27 26 19 26 -2 0 -12 -10 -23 -22z"/>
<path d="M11407 4334 c-2 -2 -20 -6 -40 -8 -20 -3 -47 -10 -59 -17 -13 -7 -24
-12 -25 -12 -8 3 -53 -14 -114 -43 -267 -128 -442 -368 -438 -599 1 -51 3 -49
14 18 5 32 17 45 92 102 47 35 90 62 95 59 4 -3 7 0 6 7 -2 6 2 13 9 16 12 4
12 -14 1 -33 -4 -6 -1 -11 6 -11 7 0 12 11 11 26 -2 28 15 62 26 55 4 -2 12
18 18 46 31 143 142 254 283 280 43 9 54 7 70 -7 21 -19 58 -25 55 -9 -1 6 4
10 12 8 12 -3 12 0 1 13 -11 13 -10 14 5 9 14 -6 16 -4 10 7 -8 12 -6 12 8 1
14 -12 16 -11 12 7 -2 13 0 19 7 15 5 -4 13 -1 17 5 4 6 33 -28 70 -85 34 -53
64 -94 67 -91 3 3 -28 58 -68 123 -72 116 -74 118 -111 119 -20 1 -38 0 -40
-1z"/>
<path d="M5585 4275 c-27 -33 -72 -88 -99 -123 -27 -34 -54 -62 -60 -63 -6 0
-2 -4 9 -8 30 -13 46 0 130 103 61 76 76 100 73 123 -3 27 -4 27 -53 -32z"/>
<path d="M13689 4283 l-24 -28 28 24 c15 14 27 26 27 28 0 8 -8 1 -31 -24z"/>
<path d="M13634 4218 l-29 -33 33 29 c30 28 37 36 29 36 -2 0 -16 -15 -33 -32z"/>
<path d="M11475 4220 c-4 -6 -11 -8 -16 -4 -5 3 -8 0 -7 -8 2 -7 -2 -12 -8
-11 -6 1 -11 -5 -11 -13 0 -7 3 -12 5 -9 3 3 11 0 18 -6 9 -7 12 -6 9 8 -3 22
14 45 28 36 6 -3 7 -1 3 5 -9 15 -13 15 -21 2z"/>
<path d="M12988 4161 c-4 -25 -21 -65 -38 -90 l-31 -46 31 34 c33 39 53 89 48
123 -2 15 -6 7 -10 -21z"/>
<path d="M11262 4171 c-95 -33 -179 -120 -207 -213 -8 -29 -14 -85 -14 -127
l2 -76 7 67 c11 88 48 167 105 222 57 56 145 99 191 94 l32 -4 -19 28 c-24 33
-27 33 -97 9z"/>
<path d="M4639 4005 c-85 -97 -154 -182 -154 -188 0 -46 95 45 280 270 11 14
35 28 53 31 l33 7 -29 28 -30 29 -153 -177z"/>
<path d="M13574 4148 l-29 -33 33 29 c30 28 37 36 29 36 -2 0 -16 -15 -33 -32z"/>
<path d="M5110 4003 c-62 -70 -123 -138 -136 -150 -26 -24 -17 -38 19 -29 22
5 223 229 241 267 6 13 6 23 -1 30 -7 7 -46 -30 -123 -118z"/>
<path d="M13490 4055 c-24 -25 -42 -45 -39 -45 3 0 25 20 49 45 24 25 42 45
39 45 -3 0 -25 -20 -49 -45z"/>
<path d="M6046 4038 c-9 -22 -16 -41 -14 -42 2 -1 21 -10 43 -20 22 -9 51 -25
64 -35 l23 -18 -92 -224 c-148 -361 -313 -753 -320 -762 -4 -5 -38 1 -76 12
-37 11 -69 19 -71 18 -1 -2 -9 -19 -17 -38 l-15 -35 272 -113 c150 -62 310
-123 356 -137 346 -100 636 43 772 381 16 40 29 80 29 89 0 8 5 18 10 21 6 3
10 17 10 31 0 14 4 22 10 19 6 -4 10 30 10 94 0 117 -19 189 -72 271 -43 67
-138 176 -150 172 -5 -1 -11 5 -14 13 -12 29 -140 94 -404 204 -146 60 -281
117 -302 125 l-36 15 -16 -41z m498 -258 c81 -39 141 -96 173 -168 22 -47 26
-68 24 -144 -4 -224 -100 -466 -241 -609 -88 -90 -151 -119 -253 -119 -63 1
-195 39 -189 55 2 4 -1 11 -7 15 -13 7 132 365 384 955 24 55 24 55 109 15z"/>
<path d="M6342 3458 c-219 -524 -271 -657 -260 -664 15 -9 22 2 68 116 131
324 324 777 337 793 25 27 68 19 138 -27 l30 -20 -23 26 c-23 25 -130 88 -150
88 -5 0 -68 -141 -140 -312z"/>
<path d="M11577 4027 c-50 -29 -56 -35 -43 -46 30 -25 116 20 116 60 0 25 -5
24 -73 -14z"/>
<path d="M12560 4055 c0 -7 81 -47 86 -43 2 3 -17 14 -41 26 -25 12 -45 20
-45 17z"/>
<path d="M12763 3983 c9 -2 25 -2 35 0 9 3 1 5 -18 5 -19 0 -27 -2 -17 -5z"/>
<path d="M13270 3823 l-155 -158 158 155 c86 85 157 156 157 157 0 8 -16 -8
-160 -154z"/>
<path d="M4130 3936 c0 -2 8 -10 18 -17 15 -13 16 -12 3 4 -13 16 -21 21 -21
13z"/>
<path d="M6099 3910 c12 -11 28 -17 33 -14 6 4 0 13 -13 20 -36 20 -47 16 -20
-6z"/>
<path d="M11910 3877 c0 -14 33 -67 43 -67 9 0 -3 24 -27 55 -8 11 -16 16 -16
12z"/>
<path d="M11006 3847 c-35 -123 95 -420 257 -589 51 -53 168 -138 190 -138 6
0 -16 16 -49 36 -193 115 -351 384 -382 649 -7 59 -10 65 -16 42z"/>
<path d="M11813 3822 c-45 -26 -85 -51 -90 -56 -10 -11 -9 -11 95 49 45 26 82
49 82 51 0 6 -1 6 -87 -44z"/>
<path d="M10858 3773 c-11 -12 -25 -20 -30 -17 -5 3 -7 1 -6 -4 2 -6 0 -9 -4
-8 -3 0 -17 -9 -31 -22 -23 -22 -30 -62 -13 -79 4 -4 6 -1 4 7 -1 8 3 14 10
13 6 -2 11 3 10 10 -2 7 6 12 19 11 12 -1 21 4 20 10 -1 6 4 10 11 9 6 -2 11
3 10 10 -2 6 3 11 10 10 6 -2 11 3 10 10 -2 7 6 12 18 11 11 -1 21 4 21 11 0
7 -7 12 -16 11 -9 -1 -17 4 -18 9 -2 6 15 10 36 10 22 0 42 2 45 5 3 3 -15 6
-40 6 -33 0 -50 -6 -66 -23z m-9 -49 c-18 -19 -35 -32 -38 -29 -2 3 -12 -2
-22 -11 -15 -13 -17 -13 -15 -1 3 20 26 48 36 42 4 -2 17 7 30 20 13 13 27 22
32 19 6 -4 -5 -21 -23 -40z"/>
<path d="M10840 3735 c-12 -13 -26 -22 -30 -20 -4 3 -14 -3 -21 -13 -12 -15
-12 -16 2 -5 9 7 18 11 21 8 2 -3 17 9 33 25 16 17 26 30 24 30 -3 0 -16 -11
-29 -25z"/>
<path d="M11937 3757 c-24 -20 -25 -24 -13 -46 l13 -23 21 27 c39 49 24 78
-21 42z"/>
<path d="M11623 3712 c-45 -26 -85 -51 -90 -56 -10 -11 -9 -11 95 49 45 26 82
49 82 51 0 6 -1 6 -87 -44z"/>
<path d="M11880 3731 c0 -20 201 -371 212 -371 5 0 1 12 -10 28 -14 21 -132
229 -191 337 -7 13 -10 15 -11 6z"/>
<path d="M4380 3716 c0 -2 8 -10 18 -17 15 -13 16 -12 3 4 -13 16 -21 21 -21
13z"/>
<path d="M10006 3683 c-2 -2 -13 -6 -25 -8 -11 -3 -30 -7 -41 -10 -11 -3 -29
-7 -40 -10 -11 -3 -29 -7 -40 -10 -11 -3 -29 -7 -40 -10 -11 -3 -29 -7 -40
-10 -11 -3 -29 -7 -40 -10 -11 -3 -29 -7 -40 -10 -11 -3 -29 -7 -40 -10 -11
-3 -29 -7 -40 -10 -11 -3 -29 -7 -40 -10 -11 -3 -29 -7 -40 -10 -11 -3 -29 -7
-40 -10 -11 -3 -30 -7 -41 -10 -24 -5 -38 -15 -21 -15 6 0 13 -14 17 -30 l7
-30 76 6 77 6 64 -248 c35 -137 67 -255 70 -261 5 -10 12 -9 29 3 12 8 20 19
17 24 -3 5 0 12 5 15 8 5 6 13 -5 25 -12 14 -13 20 -4 26 7 4 10 3 6 -3 -4 -6
0 -16 8 -23 12 -10 13 -16 4 -26 -14 -17 2 -19 19 -2 9 9 8 16 -5 30 -9 10
-13 18 -8 18 4 0 1 8 -6 18 -7 9 -9 14 -4 9 5 -4 22 5 38 20 17 17 27 22 25
13 -2 -8 2 -14 9 -13 7 2 10 -6 8 -17 -2 -11 0 -22 6 -25 9 -6 10 -2 13 33 0
11 7 26 13 34 7 8 9 19 5 23 -4 5 -1 5 6 1 7 -4 10 -11 7 -16 -3 -4 2 -13 10
-20 10 -9 12 -17 5 -30 -5 -9 -6 -21 -2 -25 4 -5 1 -5 -5 -1 -9 5 -11 2 -7
-11 5 -15 4 -16 -5 -3 -9 13 -11 13 -11 0 0 -13 -2 -13 -11 0 -9 13 -10 12 -5
-3 3 -10 2 -16 -3 -13 -5 3 -14 -1 -21 -9 -6 -7 -17 -13 -23 -11 -7 1 -9 1 -4
-1 4 -3 7 -9 7 -14 0 -6 -4 -8 -9 -4 -5 3 -21 -14 -35 -37 -25 -42 -37 -47
-15 -7 9 19 9 19 -10 10 -11 -6 -23 -16 -27 -23 -5 -7 -3 -8 6 -3 10 6 12 4 7
-8 -3 -8 1 -21 9 -28 8 -7 14 -8 13 -3 -5 20 13 42 31 39 14 -3 17 1 13 12 -4
10 -2 14 5 9 6 -3 17 3 25 14 7 11 16 17 20 14 3 -3 11 4 17 16 10 18 14 19
28 8 9 -7 13 -8 9 -2 -4 7 0 17 8 24 10 8 13 23 10 42 -3 16 -2 27 3 24 5 -3
9 1 9 9 0 8 -4 12 -9 9 -4 -3 -8 0 -8 5 0 22 -2 26 -16 43 -11 11 -12 18 -4
23 6 3 9 2 8 -3 -2 -6 2 -9 7 -8 6 0 9 5 7 9 -1 5 2 6 8 2 6 -3 7 -12 3 -18
-13 -21 -12 -37 3 -37 9 0 13 4 9 9 -3 5 0 13 7 17 7 4 10 4 6 -1 -4 -4 -4
-13 1 -19 13 -16 17 -49 7 -65 -6 -9 -5 -12 2 -7 12 7 26 -29 17 -44 -3 -5 -2
-10 3 -10 5 0 9 -6 10 -12 0 -12 5 -33 17 -75 2 -10 29 -108 58 -218 52 -197
54 -200 81 -203 16 -2 33 1 38 6 5 5 -2 7 -19 5 l-28 -5 -128 514 c-70 282
-132 515 -137 516 -6 2 -10 9 -10 16 0 12 111 56 141 56 15 0 15 5 7 39 -8 30
-15 39 -30 38 -10 -1 -20 -3 -22 -4z m-96 -538 c0 -2 -6 -8 -13 -14 -10 -8
-14 -7 -14 2 0 8 6 14 14 14 7 0 13 -1 13 -2z m40 -110 c-7 -8 -16 -13 -20
-10 -5 3 -16 -5 -24 -17 -11 -15 -16 -18 -16 -8 -1 9 -7 4 -15 -10 -7 -14 -18
-25 -25 -25 -6 0 -15 -7 -20 -15 -5 -8 -10 -10 -10 -5 1 6 7 19 15 29 11 14
15 16 15 5 0 -8 9 1 20 19 11 18 24 30 29 27 5 -3 12 -1 16 5 4 6 11 8 16 5 5
-4 12 1 15 10 4 9 9 14 12 11 3 -3 -1 -12 -8 -21z m-171 1 c8 -10 9 -16 1 -21
-6 -4 -9 -1 -8 7 2 7 -3 12 -10 10 -8 -1 -11 2 -7 8 8 13 10 13 24 -4z"/>
<path d="M4460 3646 c0 -2 8 -10 18 -17 15 -13 16 -12 3 4 -13 16 -21 21 -21
13z"/>
<path d="M11465 3620 c-27 -16 -46 -30 -42 -30 10 0 97 50 97 56 0 6 -2 5 -55
-26z"/>
<path d="M13035 3598 l-40 -43 43 40 c39 36 47 45 39 45 -2 0 -21 -19 -42 -42z"/>
<path d="M7246 3593 c-3 -8 -6 -27 -6 -42 0 -26 4 -29 58 -41 83 -18 92 -24
81 -57 -5 -16 -33 -192 -64 -393 -30 -201 -65 -428 -78 -504 l-22 -140 -74 0
-75 -1 -8 -34 c-5 -18 -8 -35 -6 -36 4 -4 978 -155 999 -155 13 0 22 29 45
145 21 108 32 145 43 145 8 0 12 3 8 6 -6 6 -73 16 -126 18 l-35 1 -35 -106
-35 -107 -35 5 c-20 2 -52 6 -71 9 -19 3 -44 7 -55 9 -11 1 -31 5 -45 9 -14 3
-43 8 -65 10 -56 5 -99 17 -107 30 -12 17 -9 33 3 16 8 -12 9 -9 4 10 -12 44
-11 65 4 62 9 -2 11 2 6 15 -12 29 -11 58 2 56 9 -2 10 4 3 23 -11 28 -5 48
12 38 8 -5 9 -1 3 12 -12 30 -11 59 2 57 9 -2 10 4 3 23 -11 28 -5 48 12 38 7
-4 8 2 3 17 -12 37 -11 54 3 52 14 -3 15 2 3 26 -6 10 -7 27 -4 39 6 26 38 28
142 11 120 -19 108 -8 103 -99 l-5 -80 29 0 c16 0 38 -3 49 -6 18 -4 21 -1 20
23 0 18 5 27 13 25 10 -2 10 2 2 19 -13 23 -6 54 10 44 7 -4 7 2 0 19 -11 29
-3 59 12 50 6 -4 5 3 -2 16 -13 24 -6 55 10 45 7 -4 7 3 0 20 -11 28 -5 49 11
40 12 -8 12 2 -1 25 -11 21 -3 53 11 44 5 -3 9 1 9 9 0 18 -87 32 -105 17 -6
-5 -20 -37 -30 -70 -10 -34 -21 -62 -24 -64 -3 -2 -53 4 -110 13 -94 14 -104
18 -107 38 -2 12 -5 28 -6 35 -2 7 3 12 10 10 10 -2 12 4 7 20 -4 13 -7 25 -7
28 0 21 3 30 10 26 4 -2 6 11 4 31 -3 27 -1 34 8 28 9 -6 10 -1 5 16 -11 36
-11 44 0 42 7 -1 9 13 7 34 -3 20 -1 33 5 30 5 -3 7 10 5 30 -3 20 -1 33 4 30
5 -3 7 16 6 43 -3 33 0 49 10 52 7 3 89 -7 183 -21 l170 -26 -4 -116 -3 -116
71 -11 c92 -16 89 -16 83 14 -4 20 -2 25 8 19 9 -6 11 4 5 45 -6 41 -4 51 5
45 10 -6 11 3 6 40 -6 36 -5 45 5 40 9 -6 11 3 6 38 -5 32 -3 47 6 50 18 6 -8
11 -503 87 -250 39 -463 72 -472 74 -9 2 -19 -3 -22 -11z"/>
<path d="M9999 3559 l-57 -20 10 -39 10 -40 19 25 c11 13 30 27 42 31 29 8 57
34 57 51 0 17 -13 16 -81 -8z"/>
<path d="M4919 3455 c-106 -107 -113 -116 -91 -122 20 -5 38 8 109 78 90 89
116 127 104 148 -6 9 -43 -23 -122 -104z"/>
<path d="M11530 3519 c-61 -29 -64 -31 -45 -45 11 -8 24 -13 30 -11 5 3 35 13
65 23 30 10 56 20 58 21 8 4 -20 43 -31 43 -7 -1 -41 -15 -77 -31z"/>
<path d="M12939 3513 l-24 -28 28 24 c15 14 27 26 27 28 0 8 -8 1 -31 -24z"/>
<path d="M9249 3505 c-3 -2 -52 -7 -109 -10 -58 -3 -136 -8 -175 -10 -38 -3
-106 -7 -150 -10 -44 -2 -116 -7 -160 -10 -113 -9 -150 -11 -237 -13 -76 -2
-78 -3 -78 -28 0 -14 4 -23 10 -19 6 4 9 -4 7 -17 -2 -22 2 -23 73 -28 l75 -5
-3 -44 c-2 -27 0 -41 7 -37 6 4 8 -17 4 -65 -5 -53 -3 -70 5 -65 9 5 10 -13 5
-70 -4 -56 -3 -75 5 -70 8 5 10 -16 6 -76 -4 -62 -3 -79 5 -68 9 11 10 -8 6
-75 -5 -68 -4 -86 5 -75 8 11 9 -7 5 -75 -5 -66 -3 -86 5 -75 8 11 9 -11 5
-85 -5 -76 -4 -96 5 -85 9 12 10 1 8 -47 -3 -35 -7 -65 -10 -69 -6 -5 -36 -12
-83 -17 -38 -5 -65 -18 -65 -33 0 -8 5 -12 10 -9 6 4 10 -5 10 -20 0 -27 1
-27 58 -21 31 3 97 8 146 12 50 3 100 12 111 20 12 8 26 11 30 7 5 -5 4 -1 -2
7 -10 13 -8 16 7 17 13 1 18 -4 15 -18 -2 -11 0 -17 5 -14 10 6 8 24 -4 44 -6
9 -5 12 2 7 6 -3 13 -2 17 4 3 5 13 10 21 10 8 0 12 -5 9 -10 -4 -6 -10 -8
-14 -6 -4 3 -8 -1 -8 -9 0 -9 5 -11 11 -6 6 4 23 7 39 6 15 -1 32 4 38 11 6 8
16 11 22 7 5 -3 7 -2 4 4 -4 5 -25 9 -47 8 -22 -1 -43 2 -46 7 -5 8 9 12 34 9
16 -2 15 10 -4 269 -9 118 -21 218 -27 221 -5 4 -7 13 -4 21 4 11 34 17 123
22 65 3 121 3 124 -1 4 -5 12 -35 19 -68 21 -100 17 -95 73 -95 l50 0 -6 48
c-3 26 -8 94 -11 152 -3 58 -8 130 -11 161 l-6 56 -53 -1 -54 0 -6 -66 c-3
-36 -7 -71 -8 -78 -2 -15 -69 -24 -170 -25 l-59 0 -3 59 c-2 33 -6 127 -10
209 -4 88 -13 161 -20 177 -8 17 -10 30 -4 34 12 7 224 23 309 24 l65 0 25
-108 25 -107 78 0 c77 0 77 0 73 25 -3 14 -10 75 -16 135 -16 162 -11 151 -73
153 -30 1 -56 -1 -58 -3z m-335 -1244 c-7 -8 -54 -9 -49 -1 2 3 15 6 29 6 14
0 23 -2 20 -5z"/>
<path d="M4630 3496 c0 -2 8 -10 18 -17 15 -13 16 -12 3 4 -13 16 -21 21 -21
13z"/>
<path d="M7280 3471 c0 -11 51 -41 70 -41 20 0 10 29 -12 35 -13 4 -31 9 -40
11 -10 3 -18 1 -18 -5z"/>
<path d="M12869 3453 l-24 -28 28 24 c15 14 27 26 27 28 0 8 -8 1 -31 -24z"/>
<path d="M3805 3450 c10 -11 20 -20 23 -20 3 0 -3 9 -13 20 -10 11 -20 20 -23
20 -3 0 3 -9 13 -20z"/>
<path d="M9545 3444 c-11 -3 -31 -7 -43 -10 -43 -9 -6 -34 50 -34 45 0 49 2
46 22 -3 23 -18 29 -53 22z"/>
<path d="M4710 3426 c0 -2 8 -10 18 -17 15 -13 16 -12 3 4 -13 16 -21 21 -21
13z"/>
<path d="M12809 3403 c-13 -16 -12 -17 4 -4 16 13 21 21 13 21 -2 0 -10 -8
-17 -17z"/>
<path d="M7714 3363 c-4 -27 -19 -122 -34 -213 -15 -91 -26 -167 -24 -169 10
-12 19 23 44 172 15 90 33 174 39 185 14 27 58 29 181 7 107 -19 112 -19 108
2 -3 14 -29 22 -138 40 -182 29 -168 31 -176 -24z"/>
<path d="M9085 3374 c-11 -1 -68 -6 -127 -9 l-108 -7 0 -51 c1 -52 1 -52 16
-25 8 15 25 30 37 33 35 8 261 23 270 18 5 -3 7 5 5 18 -2 20 -9 24 -38 25
-19 1 -44 0 -55 -2z"/>
<path d="M8241 3252 c-8 -67 -19 -129 -25 -137 -9 -11 -21 -12 -65 -4 -29 6
-56 7 -60 4 -10 -11 29 -33 71 -40 61 -11 74 9 88 130 6 55 10 116 8 135 -2
20 -9 -19 -17 -88z"/>
<path d="M12749 3353 c-13 -16 -12 -17 4 -4 16 13 21 21 13 21 -2 0 -10 -8
-17 -17z"/>
<path d="M3925 3340 c10 -11 20 -20 23 -20 3 0 -3 9 -13 20 -10 11 -20 20 -23
20 -3 0 3 -9 13 -20z"/>
<path d="M8394 3311 c10 -11 35 -21 57 -23 35 -3 39 -1 39 19 0 21 -4 23 -57
23 -54 0 -56 -1 -39 -19z"/>
<path d="M12699 3313 c-13 -16 -12 -17 4 -4 16 13 21 21 13 21 -2 0 -10 -8
-17 -17z"/>
<path d="M12053 3243 c-151 -192 -387 -320 -612 -331 -141 -7 -240 17 -356 85
l-40 24 33 -29 c45 -40 143 -88 217 -107 83 -21 215 -19 307 4 84 22 193 73
282 134 117 79 242 227 234 278 -2 17 -14 7 -65 -58z"/>
<path d="M4010 3265 c13 -14 26 -25 28 -25 3 0 -5 11 -18 25 -13 14 -26 25
-28 25 -3 0 5 -11 18 -25z"/>
<path d="M7060 3251 c0 -48 -28 -168 -56 -239 -54 -135 -127 -239 -219 -309
-114 -87 -224 -123 -376 -123 -136 0 -238 29 -528 149 -222 93 -306 120 -241
79 55 -35 542 -229 626 -249 119 -28 289 -23 379 11 90 34 189 104 246 174 59
72 131 215 154 305 17 67 32 231 21 231 -3 0 -6 -13 -6 -29z"/>
<path d="M4080 3205 c13 -14 26 -25 28 -25 3 0 -5 11 -18 25 -13 14 -26 25
-28 25 -3 0 5 -11 18 -25z"/>
<path d="M12569 3213 c-13 -16 -12 -17 4 -4 9 7 17 15 17 17 0 8 -8 3 -21 -13z"/>
<path d="M11820 3173 l-25 -25 28 17 c15 10 27 21 27 26 0 12 -2 11 -30 -18z"/>
<path d="M4140 3155 c13 -14 26 -25 28 -25 3 0 -5 11 -18 25 -13 14 -26 25
-28 25 -3 0 5 -11 18 -25z"/>
<path d="M9350 3163 c-75 -5 -86 -9 -70 -29 21 -24 109 -15 128 14 8 12 11 21
6 20 -5 -1 -34 -3 -64 -5z"/>
<path d="M8863 3125 c0 -22 2 -30 4 -17 2 12 2 30 0 40 -3 9 -5 -1 -4 -23z"/>
<path d="M9919 3126 c-5 -23 -3 -32 6 -38 6 -5 6 -8 -2 -8 -7 0 -13 -5 -13
-11 0 -14 18 -2 30 21 7 13 6 21 -5 30 -8 7 -16 10 -16 6z"/>
<path d="M9839 3094 c-20 -25 -19 -43 4 -59 19 -13 23 -13 36 0 11 11 12 17 3
28 -7 8 -10 16 -7 19 3 3 -1 10 -8 17 -11 9 -17 8 -28 -5z m16 -24 c-2 -11 0
-22 6 -25 5 -4 9 -1 9 6 0 7 3 10 6 6 3 -3 3 -11 -1 -17 -10 -16 -34 6 -30 28
5 22 4 22 9 22 3 0 3 -9 1 -20z"/>
<path d="M11549 3097 c5 -5 30 -7 57 -5 l49 3 -57 5 c-31 3 -53 1 -49 -3z"/>
<path d="M9811 2991 c-15 -11 -18 -18 -8 -18 8 0 19 9 26 19 14 22 12 22 -18
-1z"/>
<path d="M8872 2965 c0 -16 2 -22 5 -12 2 9 2 23 0 30 -3 6 -5 -1 -5 -18z"/>
<path d="M7990 2833 c-30 -203 -28 -198 -76 -195 l-39 3 24 -21 c28 -24 33
-25 59 -2 17 14 25 48 46 182 14 90 22 168 17 173 -5 5 -18 -58 -31 -140z"/>
<path d="M9874 2948 l-19 -23 23 19 c12 11 22 21 22 23 0 8 -8 2 -26 -19z"/>
<path d="M9815 2911 c-3 -5 -2 -12 3 -15 5 -3 9 1 9 9 0 17 -3 19 -12 6z"/>
<path d="M9242 2845 c0 -16 2 -22 5 -12 2 9 2 23 0 30 -3 6 -5 -1 -5 -18z"/>
<path d="M7625 2808 c-3 -18 -19 -125 -35 -237 -27 -180 -30 -225 -16 -210 2
2 17 93 34 202 16 108 35 204 42 212 14 17 74 19 133 6 33 -8 37 -7 37 10 0
10 -1 19 -2 19 -2 0 -41 7 -88 15 -47 8 -88 15 -92 15 -4 0 -10 -15 -13 -32z"/>
<path d="M8913 2783 l-32 -4 6 -67 c6 -74 13 -94 13 -41 0 19 4 40 9 48 10 15
76 30 140 31 35 0 42 3 37 16 -3 9 -6 18 -6 20 0 5 -121 3 -167 -3z"/>
<path d="M9252 2695 c0 -16 2 -22 5 -12 2 9 2 23 0 30 -3 6 -5 -1 -5 -18z"/>
<path d="M9230 2632 c-60 -7 -72 -12 -60 -27 16 -19 64 -19 80 0 17 20 9 31
-20 27z"/>
<path d="M8902 2520 c0 -14 2 -19 5 -12 2 6 2 18 0 25 -3 6 -5 1 -5 -13z"/>
<path d="M10285 2520 c-16 -7 -17 -9 -3 -9 9 -1 20 4 23 9 7 11 7 11 -20 0z"/>
<path d="M10326 2493 c7 -29 21 -50 27 -42 2 2 0 19 -5 37 -10 39 -31 44 -22
5z"/>
<path d="M9852 2424 c-7 -8 -8 -14 -3 -14 10 0 25 19 20 25 -2 1 -10 -3 -17
-11z"/>
<path d="M8137 2335 c-39 -190 -37 -185 -58 -185 -11 0 -235 34 -499 75 -264
41 -481 75 -484 75 -12 0 7 -29 22 -35 9 -3 229 -39 487 -80 408 -64 473 -72
491 -60 17 11 26 37 43 127 13 63 21 127 19 143 -2 21 -9 2 -21 -60z"/>
<path d="M10090 2351 c-146 -37 -278 -71 -293 -75 -24 -6 -27 -9 -17 -21 7 -8
23 -15 37 -15 29 0 492 115 527 132 23 10 38 49 19 47 -5 0 -127 -31 -273 -68z"/>
<path d="M8912 2390 c0 -14 2 -19 5 -12 2 6 2 18 0 25 -3 6 -5 1 -5 -13z"/>
<path d="M9800 2400 c-8 -5 -10 -10 -5 -10 6 0 17 5 25 10 8 5 11 10 5 10 -5
0 -17 -5 -25 -10z"/>
<path d="M8930 2291 c14 -5 49 -9 78 -10 47 -1 52 -3 52 -23 0 -27 16 -55 26
-46 3 4 3 23 0 43 -6 31 -10 35 -39 35 -18 0 -57 2 -87 5 -39 3 -48 2 -30 -4z"/>
<path d="M9070 2180 c-19 -5 -159 -16 -310 -25 -151 -9 -279 -21 -284 -26 -6
-6 -6 -13 2 -21 9 -9 76 -8 299 6 292 18 333 26 333 61 0 8 -1 15 -2 14 -2 -1
-19 -5 -38 -9z"/>
<path d="M9720 1980 c-9 -6 -10 -10 -3 -10 6 0 15 5 18 10 8 12 4 12 -15 0z"/>
<path d="M9768 1983 c7 -3 16 -2 19 1 4 3 -2 6 -13 5 -11 0 -14 -3 -6 -6z"/>
<path d="M9660 1970 c-9 -6 -10 -10 -3 -10 6 0 15 5 18 10 8 12 4 12 -15 0z"/>
<path d="M9600 1960 c-9 -6 -10 -10 -3 -10 6 0 15 5 18 10 8 12 4 12 -15 0z"/>
<path d="M9535 1950 c-16 -7 -17 -9 -3 -9 9 -1 20 4 23 9 7 11 7 11 -20 0z"/>
<path d="M9465 1940 c-16 -7 -17 -9 -3 -9 9 -1 20 4 23 9 7 11 7 11 -20 0z"/>
<path d="M9385 1930 c-19 -8 -19 -9 2 -9 12 -1 25 4 28 9 7 12 -2 12 -30 0z"/>
<path d="M9305 1920 c-13 -6 -15 -9 -5 -9 8 0 22 4 30 9 18 12 2 12 -25 0z"/>
<path d="M9210 1910 c-21 -7 -21 -8 -5 -9 11 0 27 4 35 9 18 11 5 11 -30 0z"/>
<path d="M9100 1900 l-25 -8 25 -1 c14 0 32 4 40 9 13 9 13 10 0 9 -8 -1 -26
-5 -40 -9z"/>
<path d="M8960 1890 l-35 -7 35 -1 c19 0 44 3 55 8 l20 9 -20 -1 c-11 0 -36
-4 -55 -8z"/>
<path d="M8750 1880 l-65 -7 55 -1 c30 0 75 3 100 7 40 8 41 8 10 8 -19 0 -64
-3 -100 -7z"/>
</g>
</svg>
