<?xml version="1.0" standalone="no"?>
<!DOCTYPE svg PUBLIC "-//W3C//DTD SVG 20010904//EN"
 "http://www.w3.org/TR/2001/REC-SVG-20010904/DTD/svg10.dtd">
<svg version="1.0" xmlns="http://www.w3.org/2000/svg"
 width="2192.000000pt" height="2192.000000pt" viewBox="0 0 2192.000000 2192.000000"
 preserveAspectRatio="xMidYMid meet">

<g transform="translate(0.000000,2192.000000) scale(0.100000,-0.100000)"
fill="#000000" stroke="none">
<path d="M10595 19440 c-710 -34 -1395 -153 -2085 -361 -1660 -499 -3161
-1557 -4218 -2974 -952 -1275 -1498 -2741 -1628 -4375 -23 -281 -23 -899 0
-1180 72 -900 266 -1738 587 -2532 813 -2011 2429 -3661 4419 -4511 871 -372
1754 -583 2755 -658 347 -26 947 -15 1360 27 694 69 1448 246 2106 495 1796
677 3326 1986 4280 3661 621 1090 971 2261 1070 3583 18 235 15 865 -5 1115
-97 1214 -427 2351 -976 3357 -701 1285 -1696 2342 -2937 3116 -1116 697
-2422 1120 -3776 1222 -247 18 -727 26 -952 15z m990 -169 c792 -71 1456 -216
2191 -481 19 -7 34 -20 38 -33 5 -22 5 -22 -11 -2 -15 20 -15 20 -11 -1 4 -16
1 -20 -16 -18 -12 1 -21 3 -21 4 0 1 -16 3 -36 5 -20 1 -49 6 -65 9 -16 4 -38
8 -49 10 -11 3 -106 25 -211 50 -600 142 -1006 214 -1441 256 -211 20 -295 22
-287 8 3 -5 10 -6 15 -3 5 4 15 3 22 -2 20 -12 38 -12 30 0 -4 7 1 6 10 -2 9
-7 17 -10 17 -6 0 4 8 1 17 -6 14 -12 16 -12 8 0 -6 11 -5 12 6 5 14 -9 17
-10 56 -16 12 -2 26 -8 30 -12 5 -5 -5 -6 -21 -2 -15 4 -54 9 -85 11 -31 2
-123 9 -206 17 -231 20 -976 17 -1235 -6 -825 -70 -1488 -221 -2225 -504 -388
-149 -981 -435 -969 -467 5 -12 10 -10 26 8 11 12 17 16 13 10 -4 -8 0 -13 10
-13 9 0 14 4 10 9 -3 5 -1 13 5 16 6 4 9 1 8 -6 -2 -11 199 -13 1042 -14 575
0 1053 1 1062 3 10 2 16 8 13 11 -2 4 2 8 10 8 8 0 11 -5 8 -11 -4 -6 0 -5 9
1 8 7 17 11 20 8 2 -2 56 6 119 20 149 31 199 37 199 22 0 -7 7 -3 15 7 12 16
18 17 27 8 16 -16 28 -15 28 3 0 8 8 15 18 15 14 0 15 -2 2 -10 -21 -13 -10
-13 142 9 554 81 1331 92 1853 26 315 -39 755 -116 868 -151 9 -3 17 -1 17 5
0 6 -11 11 -25 11 -14 0 -25 3 -25 8 0 4 471 7 1048 7 717 -1 1046 -4 1045
-11 -1 -6 4 -11 12 -11 8 0 11 5 7 11 -10 17 -11 37 -1 30 5 -3 6 -10 3 -16
-5 -8 -1 -9 10 -5 9 4 14 3 11 -2 -3 -5 0 -13 6 -17 8 -4 9 -3 5 4 -4 7 -3 12
3 12 5 0 12 -5 14 -10 3 -6 4 -5 3 2 -3 17 -73 55 -366 201 -261 130 -380 184
-633 282 -86 34 -154 65 -151 68 4 4 12 3 18 -1 6 -4 19 -7 29 -8 9 -1 18 -2
20 -4 3 -2 40 -11 55 -12 6 -1 12 -6 12 -12 0 -6 5 -4 10 4 8 12 10 12 10 1 0
-8 3 -11 7 -8 3 4 13 1 21 -6 13 -9 14 -9 8 0 -5 9 -2 11 8 7 9 -3 13 -11 9
-18 -4 -6 0 -6 9 2 11 9 18 10 23 2 3 -6 11 -8 16 -5 5 4 9 0 9 -7 0 -11 2
-10 9 0 6 11 10 10 15 -3 5 -13 9 -15 20 -6 10 8 16 8 25 -2 6 -8 22 -13 36
-11 14 1 25 -3 25 -9 0 -8 3 -7 9 1 6 11 10 10 15 -4 5 -12 10 -14 18 -6 11
11 41 5 33 -7 -2 -4 2 -8 10 -8 8 0 11 5 7 11 -3 6 7 3 22 -8 18 -11 25 -13
21 -5 -5 8 1 6 12 -4 13 -11 23 -14 27 -8 4 6 13 8 21 5 8 -4 13 -9 10 -13 -2
-4 2 -8 10 -8 8 0 11 5 8 11 -4 6 1 5 10 -3 9 -7 17 -10 17 -5 0 5 5 2 10 -6
8 -13 10 -13 10 -1 0 11 4 10 13 -4 9 -12 16 -14 21 -7 4 6 13 9 21 6 8 -4 13
-9 10 -13 -2 -4 2 -8 10 -8 8 0 11 5 8 11 -4 6 1 5 10 -3 9 -7 17 -10 17 -5 0
5 5 2 10 -6 8 -13 10 -13 10 -1 0 11 4 10 13 -4 9 -12 16 -14 21 -7 4 6 13 9
21 6 8 -4 13 -9 10 -13 -2 -4 2 -8 10 -8 8 0 11 5 8 11 -4 6 0 5 9 -1 8 -7 18
-10 21 -6 4 3 7 0 7 -8 1 -8 7 -3 15 11 l15 25 -3 -25 c-1 -16 3 -25 13 -26 8
0 17 -2 20 -3 17 -8 39 -8 34 0 -3 5 -10 6 -16 3 -7 -4 -8 -2 -4 5 14 21 422
-204 743 -409 1039 -668 1935 -1588 2570 -2640 138 -230 224 -387 358 -661 98
-201 116 -245 120 -295 2 -35 43 -185 100 -369 167 -540 234 -792 315 -1181
41 -199 110 -599 110 -638 0 -12 9 -27 21 -34 12 -8 18 -9 15 -3 -4 5 -2 12 3
15 5 4 12 -2 15 -11 3 -10 4 -6 2 9 -2 15 1 25 5 22 5 -3 9 -12 9 -20 0 -10 5
-12 13 -8 8 5 8 2 -2 -9 -16 -21 -8 -23 12 -3 15 15 28 -82 60 -434 19 -217
15 -1051 -6 -1280 -80 -849 -255 -1593 -547 -2325 -62 -155 -196 -464 -206
-474 -3 -3 -3 6 -2 19 2 14 -2 25 -9 26 -7 1 -15 3 -18 4 -12 6 -31 6 -40 -1
-7 -5 -11 0 -12 13 -3 32 -18 41 -35 21 -8 -10 -62 -106 -118 -213 -307 -582
-648 -1088 -1084 -1610 -71 -85 -136 -164 -145 -174 -15 -18 -15 -19 2 -13 9
4 17 2 17 -4 0 -6 9 -5 23 2 19 11 20 10 10 -2 -10 -12 -8 -15 7 -15 10 0 16
5 13 10 -4 5 4 2 17 -7 19 -13 27 -14 39 -4 12 9 13 9 7 0 -10 -17 16 -17 34
-1 55 50 -222 -241 -366 -383 -212 -209 -287 -278 -494 -451 -688 -577 -1492
-1047 -2332 -1364 -318 -120 -746 -252 -770 -238 -6 4 -8 3 -5 -3 7 -11 -52
-28 -61 -18 -3 3 2 5 11 5 10 0 17 5 17 11 0 5 5 7 12 3 6 -4 8 -3 5 4 -8 12
-25 11 -46 -2 -9 -6 -12 -5 -8 1 4 6 0 14 -9 17 -8 3 -13 2 -10 -2 3 -5 -1 -9
-9 -9 -8 0 -12 4 -9 8 2 4 0 10 -6 14 -5 3 -10 0 -10 -7 0 -9 -3 -9 -8 -2 -11
17 -39 23 -50 12 -6 -6 -12 -6 -17 3 -6 8 -4 10 6 4 8 -5 10 -4 6 0 -12 14
-38 15 -30 2 4 -7 -1 -5 -11 3 -19 15 -49 23 -41 11 2 -4 -2 -8 -10 -8 -8 0
-12 4 -9 9 8 12 1 11 -188 -26 -1214 -241 -2394 -229 -3568 35 -635 143 -1184
336 -1924 676 -316 145 -384 173 -340 137 68 -55 -290 173 -476 303 -1325 929
-2338 2216 -2927 3718 -95 241 -261 750 -250 762 3 2 8 -5 12 -17 4 -12 13
-19 20 -17 7 3 18 0 25 -6 10 -9 11 -9 5 3 -6 12 -5 13 5 3 10 -9 17 -10 27
-1 11 9 12 7 6 -8 -6 -16 -5 -17 9 -6 13 10 18 10 24 1 5 -8 3 -9 -6 -4 -9 6
-11 4 -5 -4 5 -9 10 -10 18 -2 8 8 16 6 31 -7 11 -9 16 -11 12 -5 -5 9 -2 11
8 7 9 -3 13 -11 9 -18 -4 -6 -1 -6 9 2 19 15 12 31 88 -193 227 -672 531
-1296 918 -1885 315 -481 604 -834 1036 -1265 459 -458 873 -799 1296 -1066
1767 -1114 3954 -1494 6000 -1042 2216 490 4159 1954 5264 3966 507 923 825
1959 920 2997 44 472 44 1111 0 1445 l-7 50 -11 -33 c-6 -18 -15 -30 -20 -25
-5 4 -6 3 -3 -3 3 -6 -3 -24 -13 -42 -14 -22 -16 -32 -7 -36 7 -4 2 -4 -11 -2
-12 2 -20 0 -17 -4 3 -5 1 -11 -5 -15 -5 -3 -10 -12 -10 -18 0 -7 5 -4 11 6 5
9 14 17 20 17 6 0 6 -5 -1 -12 -6 -7 -17 -22 -25 -33 -12 -16 -14 -16 -9 -2 5
13 2 16 -10 11 -8 -3 -14 -9 -13 -12 1 -4 -2 -9 -8 -10 -5 -2 -15 -8 -22 -13
-7 -7 -14 -6 -18 1 -3 5 -11 10 -16 10 -6 0 -8 -4 -5 -8 3 -5 -1 -9 -8 -9 -7
0 -13 6 -13 14 0 7 3 11 5 8 3 -3 11 0 19 6 10 9 13 8 13 -1 0 -8 3 -11 6 -7
10 10 -7 28 -19 20 -18 -11 -36 -12 -43 -2 -7 12 -24 2 -24 -14 0 -8 3 -8 9 2
6 9 11 10 15 2 4 -6 1 -11 -6 -11 -9 0 -9 -3 2 -10 8 -5 10 -10 4 -10 -12 0
-46 34 -42 41 2 2 -1 1 -6 -3 -5 -4 -15 -3 -22 3 -8 7 -14 7 -18 0 -4 -6 -12
-8 -20 -5 -7 3 -18 -5 -24 -18 -6 -13 -11 -17 -11 -9 -1 10 -4 11 -15 2 -10
-8 -16 -8 -25 3 -9 11 -6 13 17 11 19 -1 29 2 29 11 0 10 -4 11 -13 3 -8 -7
-14 -7 -19 1 -9 14 -38 -8 -31 -25 2 -6 -2 -12 -9 -12 -10 0 -11 7 -4 24 12
32 3 29 -15 -4 -8 -16 -15 -22 -16 -14 0 10 -3 11 -14 2 -10 -8 -16 -9 -21 -1
-9 15 -28 13 -19 -2 4 -7 -2 -5 -14 6 -12 10 -19 22 -17 26 8 13 -21 6 -39 -9
-9 -7 -13 -18 -9 -25 3 -6 -3 -3 -15 8 -12 10 -19 24 -15 30 4 6 0 5 -9 -2
-11 -9 -18 -10 -23 -2 -8 12 -25 4 -25 -13 0 -8 3 -8 9 2 6 9 11 10 15 2 4 -6
2 -11 -4 -11 -6 0 -8 -5 -5 -11 4 -6 -1 -5 -13 2 -16 10 -21 28 -26 101 -8
109 -39 348 -65 512 -111 677 -337 1386 -633 1984 -34 67 -63 121 -65 119 -2
-2 27 -66 63 -143 980 -2056 934 -4468 -123 -6449 -1082 -2029 -3046 -3416
-5293 -3739 -2009 -289 -4011 267 -5575 1549 -325 266 -723 661 -975 967 -56
68 -70 84 -94 112 -14 16 -26 33 -26 37 0 5 -7 6 -16 2 -12 -4 -15 -2 -12 8 7
19 -10 49 -27 49 -8 0 -14 3 -14 7 3 21 -2 33 -16 33 -8 0 -14 3 -14 7 4 24
-3 35 -17 29 -12 -4 -15 -2 -10 9 3 9 -3 19 -15 25 -11 6 -17 15 -14 21 4 5
-1 9 -10 9 -12 0 -15 5 -11 16 4 11 -1 18 -15 21 -12 3 -18 11 -15 19 3 8 -1
14 -10 14 -10 0 -14 6 -10 15 3 9 -3 19 -15 25 -11 6 -17 15 -14 21 4 5 -1 9
-10 9 -11 0 -15 5 -11 15 3 9 0 15 -10 15 -10 0 -14 6 -10 15 3 9 0 15 -10 15
-10 0 -14 6 -10 15 3 9 0 15 -10 15 -10 0 -14 6 -10 15 3 9 0 15 -10 15 -10 0
-14 6 -10 15 3 9 0 15 -10 15 -10 0 -14 6 -10 15 3 9 0 15 -10 15 -10 0 -14 6
-10 15 3 8 0 15 -7 15 -15 0 -49 58 -41 71 3 5 -1 9 -8 9 -13 1 -78 99 -78
118 0 6 -4 12 -8 14 -20 8 -221 382 -327 608 -147 315 -363 888 -351 932 2 10
0 18 -5 18 -12 0 -30 75 -23 94 3 9 1 16 -5 16 -6 0 -11 11 -11 25 0 14 -9 57
-20 97 -33 122 -88 374 -120 548 -80 448 -109 752 -117 1232 -4 231 -9 365
-15 362 -6 -4 -5 3 1 14 8 15 8 21 -1 24 -7 3 -8 9 -3 18 4 7 7 43 6 79 -4
106 -6 116 -20 113 -7 -1 -10 2 -7 7 4 5 2 12 -4 16 -6 4 -8 10 -5 15 6 9 -21
7 -31 -2 -3 -4 -12 -4 -19 -2 -7 3 -16 1 -20 -5 -3 -6 0 -9 7 -8 7 2 10 2 5 0
-4 -3 -4 -10 0 -16 4 -7 -1 -6 -11 2 -9 8 -15 20 -12 28 4 8 1 11 -5 7 -6 -3
-8 -16 -5 -28 5 -20 4 -20 -9 -2 -8 10 -11 24 -8 30 4 6 0 5 -9 -2 -12 -9 -18
-10 -23 -2 -10 16 -37 -9 -31 -27 4 -8 1 -11 -5 -7 -6 3 -8 16 -5 28 5 20 4
20 -9 2 -8 -10 -12 -24 -8 -30 3 -6 0 -5 -7 1 -9 8 -18 9 -25 3 -8 -7 -12 -5
-12 4 0 8 8 13 17 11 9 -2 17 3 17 10 0 8 -5 11 -11 7 -17 -10 -35 -11 -42 -1
-7 12 -24 2 -24 -14 0 -8 3 -8 9 2 6 9 11 10 15 2 4 -6 1 -11 -6 -11 -9 0 -9
-3 2 -10 8 -5 10 -10 5 -10 -6 0 -16 5 -23 12 -9 9 -12 9 -12 -2 0 -12 -2 -12
-9 -2 -4 8 -12 14 -16 14 -4 0 -12 -6 -16 -14 -7 -11 -9 -11 -9 1 0 10 -3 11
-13 2 -10 -8 -14 -7 -14 3 0 8 10 12 28 11 20 -2 26 1 22 12 -4 11 -8 12 -13
3 -6 -9 -9 -9 -14 -1 -9 14 -25 5 -37 -23 -8 -19 -9 -18 -6 7 5 34 -1 35 -13
1 -11 -27 -30 -24 -29 4 0 14 2 13 9 -3 7 -16 9 -17 9 -3 1 25 -17 31 -28 10
-6 -11 -8 -21 -6 -24 3 -3 -2 -5 -10 -5 -8 0 -12 4 -9 9 3 4 0 8 -5 8 -6 0
-11 -6 -12 -12 0 -10 -2 -10 -6 0 -4 10 -8 10 -21 0 -15 -11 -15 -11 -4 4 7 9
23 15 36 14 13 -2 23 3 23 10 0 7 -4 11 -9 8 -17 -11 -60 -15 -54 -5 3 5 -2 8
-11 7 -9 -2 -19 -9 -21 -17 -3 -12 -2 -12 6 0 7 9 12 10 16 2 4 -6 2 -11 -4
-11 -6 0 -8 -6 -4 -12 4 -7 -2 -5 -14 6 -12 10 -19 24 -15 30 4 6 -3 3 -15 -8
-12 -10 -19 -23 -16 -28 3 -5 -3 -4 -14 3 -12 7 -18 17 -15 22 3 5 9 4 13 -3
5 -8 9 -8 13 3 4 10 0 14 -11 12 -9 -2 -23 -4 -30 -4 -8 -1 -10 -6 -6 -13 4
-7 -2 -5 -14 5 -11 11 -19 27 -17 38 2 11 0 17 -6 14 -5 -4 -13 4 -18 17 -8
22 -9 21 -15 -12 -8 -51 -26 -317 -26 -398 0 -53 -4 -71 -15 -76 -12 -4 -13
-2 -6 13 7 13 6 18 -3 18 -16 0 -15 8 -27 -197 -11 -189 -5 -647 11 -905 11
-174 55 -670 69 -775 5 -36 9 -110 9 -165 l1 -100 -20 70 c-64 232 -159 792
-193 1135 -41 416 -47 1094 -12 1480 71 788 228 1485 492 2190 185 491 484
1088 756 1508 44 67 81 122 82 122 2 0 11 -10 22 -22 10 -12 13 -18 7 -14 -9
5 -11 2 -6 -10 6 -15 7 -15 15 0 7 12 5 23 -4 34 -11 15 -11 15 3 5 9 -7 20
-9 24 -5 5 4 5 1 1 -5 -4 -7 -9 -22 -11 -33 -4 -19 -2 -19 16 -6 11 7 34 33
52 57 462 645 925 1153 1525 1672 94 82 172 153 172 157 0 4 -7 10 -15 14 -8
3 -15 0 -15 -7 0 -9 -3 -9 -9 1 -14 23 -67 23 -97 -1 -16 -12 -25 -17 -21 -11
3 6 64 56 134 110 1275 991 2804 1581 4393 1693 85 7 175 13 200 15 93 8 930
-3 1045 -13z m2295 -521 c8 -5 11 -10 5 -10 -5 0 -17 5 -25 10 -8 5 -10 10 -5
10 6 0 17 -5 25 -10z m340 -140 c8 -5 11 -10 5 -10 -5 0 -17 5 -25 10 -8 5
-10 10 -5 10 6 0 17 -5 25 -10z m80 -35 c14 -8 21 -14 15 -14 -5 0 -21 6 -35
14 -14 8 -20 14 -15 14 6 0 21 -6 35 -14z m120 -55 c19 -11 31 -19 25 -19 -5
0 -26 8 -45 19 -19 11 -30 19 -25 19 6 0 26 -8 45 -19z m190 -102 c0 -6 -6 -5
-15 2 -8 7 -15 14 -15 16 0 2 7 1 15 -2 8 -4 15 -11 15 -16z m-8810 -961 c0
-2 -12 -14 -27 -28 l-28 -24 24 28 c23 25 31 32 31 24z m-60 -50 c0 -2 -10
-12 -22 -23 l-23 -19 19 23 c18 21 26 27 26 19z m-60 -50 c0 -2 -10 -12 -22
-23 l-23 -19 19 23 c18 21 26 27 26 19z m-80 -70 c0 -2 -10 -12 -22 -23 l-23
-19 19 23 c18 21 26 27 26 19z m-90 -80 c0 -2 -10 -12 -22 -23 l-23 -19 19 23
c18 21 26 27 26 19z m-110 -100 c0 -2 -15 -16 -32 -33 l-33 -29 29 33 c28 30
36 37 36 29z m-360 -360 c0 -2 -15 -16 -32 -33 l-33 -29 29 33 c28 30 36 37
36 29z m-130 -141 c0 -2 -8 -10 -17 -17 -16 -13 -17 -12 -4 4 13 16 21 21 21
13z m-80 -90 c0 -2 -8 -10 -17 -17 -16 -13 -17 -12 -4 4 13 16 21 21 21 13z
m-590 -910 c0 -2 -7 -7 -16 -10 -8 -3 -12 -2 -9 4 6 10 25 14 25 6z m14190
-1221 c0 -5 -5 -3 -10 5 -5 8 -10 20 -10 25 0 6 5 3 10 -5 5 -8 10 -19 10 -25z
m537 -1767 c-3 -8 -6 -5 -6 6 -1 11 2 17 5 13 3 -3 4 -12 1 -19z m30 -180 c-3
-8 -6 -5 -6 6 -1 11 2 17 5 13 3 -3 4 -12 1 -19z m10 -60 c-3 -8 -6 -5 -6 6
-1 11 2 17 5 13 3 -3 4 -12 1 -19z m10 -75 c-3 -10 -5 -4 -5 12 0 17 2 24 5
18 2 -7 2 -21 0 -30z m6 -94 c-5 -5 -7 7 -4 29 5 34 6 35 9 8 2 -16 0 -32 -5
-37z m-60 -4 c-7 -21 -12 -19 -10 4 0 11 5 18 9 15 4 -3 5 -11 1 -19z m-15331
-550 c2 3 5 -1 5 -9 0 -15 -14 -16 -35 -3 -7 5 -10 13 -6 18 4 6 10 6 18 0 7
-6 15 -9 18 -6z m117 -13 c-1 -15 -2 -14 -6 1 -5 18 -5 18 -19 0 -14 -17 -14
-16 -4 5 12 25 31 21 29 -6z m14511 9 c7 -15 7 -19 -5 -17 -20 3 -28 13 -20
25 9 15 13 14 25 -8z m282 0 c3 9 6 8 10 -3 8 -20 -20 -18 -33 3 -7 11 -9 10
-9 -5 0 -11 -3 -17 -6 -13 -4 3 -3 14 0 24 7 17 8 17 21 0 9 -13 14 -14 17 -6z
m-15358 -7 c3 -8 2 -12 -4 -9 -6 3 -10 10 -10 16 0 14 7 11 14 -7z m14999 3
c3 -8 -1 -14 -8 -14 -7 0 -11 6 -8 14 3 7 6 13 8 13 2 0 5 -6 8 -13z m298 -10
c-10 -9 -11 -8 -5 6 3 10 9 15 12 12 3 -3 0 -11 -7 -18z m-15424 -2529 c-3 -8
-6 -5 -6 6 -1 11 2 17 5 13 3 -3 4 -12 1 -19z m10 -40 c-3 -8 -6 -5 -6 6 -1
11 2 17 5 13 3 -3 4 -12 1 -19z m10 -40 c-3 -8 -6 -5 -6 6 -1 11 2 17 5 13 3
-3 4 -12 1 -19z m20 -70 c-3 -8 -6 -5 -6 6 -1 11 2 17 5 13 3 -3 4 -12 1 -19z
m15130 -1230 c-3 -8 -6 -5 -6 6 -1 11 2 17 5 13 3 -3 4 -12 1 -19z m-12772
-1235 c129 -153 276 -311 467 -499 210 -208 329 -314 552 -493 1032 -826 2267
-1349 3581 -1515 510 -65 1092 -72 1620 -20 1528 151 2980 799 4123 1843 232
211 521 514 701 733 35 42 70 78 78 80 31 6 283 -3 279 -10 -2 -4 -68 -7 -146
-7 -78 0 -143 -2 -145 -5 -2 -3 66 -5 150 -5 137 1 153 -1 142 -15 -8 -10 -5
-9 9 3 11 9 23 14 27 11 4 -4 4 3 2 15 -2 12 0 19 6 16 5 -4 6 -11 3 -17 -5
-7 -2 -9 8 -5 28 10 39 -14 15 -35 -12 -10 -17 -18 -12 -17 28 4 56 -2 50 -10
-3 -6 -14 -8 -25 -6 -12 2 -18 0 -15 -6 4 -5 11 -7 16 -3 7 4 9 -6 6 -25 -4
-21 -2 -29 6 -24 7 4 8 0 4 -11 -4 -10 -7 -22 -7 -27 0 -6 -4 -8 -9 -5 -5 4
-8 -2 -6 -11 1 -10 -2 -24 -8 -30 -5 -7 -7 -13 -3 -13 3 0 -6 -24 -21 -52 -15
-29 -26 -56 -25 -59 0 -4 -8 -15 -18 -24 -11 -10 -20 -23 -20 -28 0 -6 -11
-25 -25 -43 -14 -19 -25 -36 -24 -40 0 -3 -11 -18 -25 -33 -15 -15 -24 -30
-21 -33 3 -2 -4 -13 -15 -23 -11 -10 -20 -23 -20 -29 -1 -6 -29 -45 -63 -87
-282 -346 -462 -530 -827 -843 -36 -31 -200 -160 -300 -237 -164 -126 -471
-326 -680 -445 -36 -20 -94 -54 -130 -74 -83 -48 -402 -207 -500 -250 -41 -18
-108 -48 -147 -66 -99 -45 -437 -172 -608 -227 -568 -184 -1116 -299 -1725
-362 -40 -4 -101 -9 -242 -20 -286 -24 -903 -23 -1158 0 -25 2 -83 7 -130 10
-47 4 -96 8 -110 10 -14 2 -54 6 -90 10 -383 36 -920 141 -1355 266 -290 84
-711 232 -888 313 -39 18 -106 48 -147 66 -98 43 -417 202 -500 250 -36 20
-94 54 -130 74 -209 119 -516 319 -680 445 -100 77 -264 206 -300 237 -363
311 -547 499 -827 843 -34 42 -62 81 -63 87 0 6 -9 19 -20 29 -11 10 -18 21
-15 23 3 3 -6 18 -21 33 -14 15 -25 30 -25 33 1 4 -10 21 -24 40 -14 18 -25
37 -25 43 0 5 -9 18 -20 28 -10 9 -18 20 -18 24 1 3 -10 30 -25 59 -15 28 -24
52 -21 52 4 0 1 7 -6 15 -6 8 -9 18 -6 24 3 5 1 11 -5 13 -6 2 -12 16 -12 31
-1 15 -6 27 -12 28 -5 0 -1 4 10 9 11 5 14 9 7 9 -7 1 -10 6 -7 11 4 6 10 8
15 5 5 -3 11 -1 15 4 3 6 -3 8 -15 6 -11 -2 -22 0 -25 6 -5 8 15 14 37 10 4 0
5 6 1 15 -5 13 -7 13 -14 2 -6 -9 -8 -6 -7 8 1 14 8 21 18 19 8 -1 14 -9 12
-16 -1 -8 8 -2 20 13 l23 26 185 2 c109 0 186 5 188 10 4 10 72 -59 137 -137z
m-535 103 c0 -6 -5 -3 -11 7 -6 9 -15 14 -21 11 -7 -4 -8 -2 -4 5 9 14 36 -3
36 -23z m12037 -32 c-3 -3 -12 -4 -19 -1 -8 3 -5 6 6 6 11 1 17 -2 13 -5z
m313 -578 c0 -2 -8 -10 -17 -17 -16 -13 -17 -12 -4 4 13 16 21 21 21 13z m-50
-60 c0 -2 -8 -10 -17 -17 -16 -13 -17 -12 -4 4 13 16 21 21 21 13z m-50 -59
c0 -2 -12 -14 -27 -28 l-28 -24 24 28 c23 25 31 32 31 24z m-60 -70 c0 -2 -17
-19 -37 -38 l-38 -34 34 38 c33 34 41 42 41 34z m-4195 -2505 c-3 -3 -11 0
-18 7 -9 10 -8 11 6 5 10 -3 15 -9 12 -12z m72 -48 c-3 -3 -12 -4 -19 -1 -8 3
-5 6 6 6 11 1 17 -2 13 -5z m-40 -10 c-3 -3 -12 -4 -19 -1 -8 3 -5 6 6 6 11 1
17 -2 13 -5z m-40 -10 c-3 -3 -12 -4 -19 -1 -8 3 -5 6 6 6 11 1 17 -2 13 -5z
m-40 -10 c-3 -3 -12 -4 -19 -1 -8 3 -5 6 6 6 11 1 17 -2 13 -5z m-40 -10 c-3
-3 -12 -4 -19 -1 -8 3 -5 6 6 6 11 1 17 -2 13 -5z m-90 -20 c-3 -3 -12 -4 -19
-1 -8 3 -5 6 6 6 11 1 17 -2 13 -5z m-40 -10 c-3 -3 -12 -4 -19 -1 -8 3 -5 6
6 6 11 1 17 -2 13 -5z m-50 -10 c-3 -3 -12 -4 -19 -1 -8 3 -5 6 6 6 11 1 17
-2 13 -5z m-50 -10 c-3 -3 -12 -4 -19 -1 -8 3 -5 6 6 6 11 1 17 -2 13 -5z
m-50 -10 c-3 -3 -12 -4 -19 -1 -8 3 -5 6 6 6 11 1 17 -2 13 -5z m-50 -10 c-3
-3 -12 -4 -19 -1 -8 3 -5 6 6 6 11 1 17 -2 13 -5z m-50 -10 c-3 -3 -12 -4 -19
-1 -8 3 -5 6 6 6 11 1 17 -2 13 -5z m-60 -10 c-3 -3 -12 -4 -19 -1 -8 3 -5 6
6 6 11 1 17 -2 13 -5z m-180 -30 c-3 -3 -12 -4 -19 -1 -8 3 -5 6 6 6 11 1 17
-2 13 -5z m-60 -10 c-3 -3 -12 -4 -19 -1 -8 3 -5 6 6 6 11 1 17 -2 13 -5z
m-74 -11 c-7 -2 -19 -2 -25 0 -7 3 -2 5 12 5 14 0 19 -2 13 -5z m-2146 -9 c-3
-3 -12 -4 -19 -1 -8 3 -5 6 6 6 11 1 17 -2 13 -5z m2070 0 c-3 -3 -12 -4 -19
-1 -8 3 -5 6 6 6 11 1 17 -2 13 -5z m-1990 -10 c-3 -3 -12 -4 -19 -1 -8 3 -5
6 6 6 11 1 17 -2 13 -5z m1906 -1 c-7 -2 -19 -2 -25 0 -7 3 -2 5 12 5 14 0 19
-2 13 -5z m-1816 -9 c-3 -3 -12 -4 -19 -1 -8 3 -5 6 6 6 11 1 17 -2 13 -5z
m1726 -1 c-7 -2 -19 -2 -25 0 -7 3 -2 5 12 5 14 0 19 -2 13 -5z m-1620 -10
c-7 -2 -19 -2 -25 0 -7 3 -2 5 12 5 14 0 19 -2 13 -5z m1520 0 c-7 -2 -19 -2
-25 0 -7 3 -2 5 12 5 14 0 19 -2 13 -5z m-1406 -9 c-3 -3 -12 -4 -19 -1 -8 3
-5 6 6 6 11 1 17 -2 13 -5z m1296 -1 c-7 -2 -21 -2 -30 0 -10 3 -4 5 12 5 17
0 24 -2 18 -5z m-1145 -10 c-10 -2 -26 -2 -35 0 -10 3 -2 5 17 5 19 0 27 -2
18 -5z m1000 0 c-10 -2 -28 -2 -40 0 -13 2 -5 4 17 4 22 1 32 -1 23 -4z m-785
-10 c-13 -2 -35 -2 -50 0 -16 2 -5 4 22 4 28 0 40 -2 28 -4z m570 0 c-13 -2
-33 -2 -45 0 -13 2 -3 4 22 4 25 0 35 -2 23 -4z"/>
<path d="M14256 17458 c3 -4 9 -8 15 -8 5 0 9 4 9 8 0 5 -7 9 -15 9 -8 0 -12
-4 -9 -9z"/>
<path d="M5980 17370 c-558 -425 -1128 -1032 -1553 -1650 -91 -134 -97 -143
-84 -148 4 -1 49 55 99 125 423 595 930 1136 1531 1631 115 95 142 122 120
122 -5 0 -55 -36 -113 -80z"/>
<path d="M14361 17413 c-1 -13 30 -33 51 -33 8 1 6 6 -6 15 -10 8 -22 12 -27
10 -4 -3 -10 1 -12 7 -4 10 -6 10 -6 1z"/>
<path d="M14435 17368 c3 -7 60 -44 127 -83 66 -38 196 -119 287 -179 440
-288 768 -554 1154 -935 114 -113 207 -200 207 -193 0 16 -244 267 -395 406
-358 331 -875 715 -1210 900 -27 16 -78 44 -113 63 -34 19 -60 29 -57 21z"/>
<path d="M5685 15970 c-3 -5 -1 -10 4 -10 6 0 11 5 11 10 0 6 -2 10 -4 10 -3
0 -8 -4 -11 -10z"/>
<path d="M16255 15920 c21 -22 41 -40 43 -40 2 0 -11 18 -28 40 -17 22 -37 40
-43 40 -6 0 7 -18 28 -40z"/>
<path d="M5595 15870 c-3 -5 -2 -10 4 -10 5 0 13 5 16 10 3 6 2 10 -4 10 -5 0
-13 -4 -16 -10z"/>
<path d="M5520 15778 c-12 -22 -12 -22 6 -6 10 10 15 20 12 24 -4 3 -12 -5
-18 -18z"/>
<path d="M5455 15703 l-18 -28 27 24 c28 26 31 31 17 31 -5 0 -17 -12 -26 -27z"/>
<path d="M5313 15533 c-114 -145 -158 -203 -183 -239 -8 -12 -49 -71 -91 -131
-405 -577 -750 -1296 -955 -1993 -30 -102 -57 -193 -60 -202 -3 -10 -1 -18 4
-18 5 0 15 21 21 48 25 100 156 495 221 662 260 675 656 1370 1080 1898 49 61
86 112 81 112 -5 0 -58 -62 -118 -137z"/>
<path d="M4150 15620 c0 -5 5 -10 11 -10 5 0 7 5 4 10 -3 6 -8 10 -11 10 -2 0
-4 -4 -4 -10z"/>
<path d="M7232 14968 c-17 -17 -17 -1849 0 -1866 9 -9 322 -12 1345 -12 l1333
0 0 -430 0 -430 -32 0 c-61 0 -422 -20 -633 -35 -1921 -138 -3031 -498 -3160
-1027 -102 -413 355 -800 1271 -1078 633 -192 1526 -339 2366 -390 154 -10
181 -9 199 4 21 14 21 15 -12 20 -19 3 -124 13 -234 21 -1485 116 -2594 384
-3175 766 -146 97 -307 262 -336 346 -4 10 12 -11 35 -46 302 -459 1380 -827
2911 -995 197 -22 412 -39 750 -61 l95 -6 -3 -1745 -2 -1744 985 -2 985 -3 0
1733 c0 1148 -3 1732 -10 1732 -5 0 -10 6 -10 14 0 16 -6 15 380 42 1152 78
2232 316 2840 624 310 158 472 300 581 510 31 60 34 72 34 155 0 101 -18 152
-93 263 -119 175 -404 339 -817 471 -320 103 -696 180 -1247 258 -291 41 -337
50 -333 64 4 13 -17 18 -142 32 -234 27 -641 56 -995 73 l-148 7 0 428 0 429
1313 0 1314 0 21 23 22 23 0 910 c0 694 -3 913 -12 922 -17 17 -7369 17 -7386
0z m6688 -285 c36 -5 90 -22 120 -38 71 -35 168 -107 152 -113 -8 -2 -2 -16
17 -38 58 -65 83 -122 102 -227 25 -141 35 -267 20 -267 -6 0 -11 -15 -11 -34
0 -53 -37 -188 -67 -242 -14 -27 -42 -69 -62 -94 -20 -24 -35 -48 -34 -52 2
-5 -3 -7 -10 -5 -6 1 -11 -4 -10 -10 2 -7 -3 -12 -10 -10 -6 1 -11 -4 -10 -10
2 -7 0 -12 -5 -11 -4 1 -27 -9 -52 -24 -41 -24 -118 -53 -166 -62 -10 -3 -39
-9 -62 -14 -26 -6 -271 -11 -600 -12 -570 -1 -655 -3 -777 -20 -68 -9 -90 -13
-147 -26 -15 -3 -30 -5 -33 -5 -2 0 -20 -6 -40 -15 -19 -8 -38 -15 -42 -15 -5
-1 -18 -5 -31 -10 -13 -5 -29 -9 -37 -9 -25 0 -45 -12 -38 -23 3 -5 1 -7 -5
-4 -15 10 -43 -3 -35 -16 3 -5 2 -7 -4 -4 -13 8 -136 -72 -192 -126 -76 -72
-141 -189 -141 -251 0 -18 -4 -36 -10 -42 -15 -15 -27 -93 -41 -254 -14 -165
-13 -277 2 -370 13 -81 14 -267 1 -283 -5 -7 -8 -22 -6 -35 2 -13 1 -21 -3
-19 -5 3 -8 -11 -7 -31 0 -21 -5 -40 -10 -44 -7 -5 -7 -8 2 -8 9 0 10 -5 4
-17 -5 -10 -8 -28 -6 -41 3 -14 0 -21 -6 -17 -7 4 -7 -2 0 -19 5 -15 6 -28 0
-31 -5 -3 -6 -13 -3 -21 3 -9 0 -20 -8 -25 -11 -6 -11 -9 -1 -9 9 0 10 -5 4
-17 -5 -10 -8 -28 -6 -41 2 -13 1 -21 -3 -19 -5 3 -7 -19 -7 -49 1 -29 -1 -52
-5 -50 -3 2 -5 -20 -5 -50 1 -29 -1 -52 -5 -50 -3 2 -5 -29 -5 -70 1 -41 -2
-72 -6 -69 -5 3 -7 -3 -5 -12 12 -60 13 -93 3 -87 -7 5 -8 2 -2 -7 4 -8 9 -30
11 -49 1 -19 5 -51 8 -70 4 -19 7 -51 8 -72 1 -20 5 -34 9 -32 7 5 9 -1 33
-106 10 -41 23 -81 29 -89 8 -11 8 -13 -2 -7 -7 4 -4 -7 7 -25 11 -18 18 -36
15 -41 -3 -4 -1 -8 4 -8 5 0 22 -31 37 -70 15 -38 32 -70 37 -70 5 0 7 -3 4
-8 -6 -10 59 -113 68 -105 3 3 6 -3 6 -14 0 -11 9 -28 20 -38 11 -10 22 -27
26 -39 7 -22 41 -56 56 -56 4 0 8 -5 8 -11 0 -5 -6 -7 -12 -4 -7 4 -6 0 3 -7
9 -7 18 -22 20 -32 2 -11 11 -21 19 -23 13 -4 13 -3 0 7 -13 10 -13 11 0 7 11
-3 14 -17 13 -56 -1 -35 1 -49 9 -45 6 4 8 3 5 -4 -9 -14 3 -43 14 -36 15 9
10 -3 -8 -17 -10 -8 -14 -9 -10 -2 4 6 3 14 -2 18 -11 6 -7 -27 5 -48 5 -8 2
-7 -9 2 -15 12 -17 12 -11 -4 6 -14 4 -16 -6 -10 -9 5 -11 4 -6 -3 4 -7 -7
-32 -24 -58 -18 -25 -29 -48 -26 -51 3 -3 -8 -21 -24 -39 -43 -49 -78 -113
-106 -196 -26 -74 -61 -214 -69 -278 -2 -19 -8 -56 -13 -82 -5 -26 -6 -49 -2
-50 4 -2 4 -28 -1 -58 -11 -78 -11 -318 1 -378 5 -28 14 -201 20 -384 6 -183
15 -423 20 -533 6 -110 13 -328 16 -485 6 -281 -1 -399 -34 -557 -31 -148
-187 -314 -347 -368 -57 -19 -62 -20 -129 -29 -27 -4 -54 -10 -60 -13 -12 -8
-65 -10 -61 -3 2 3 -17 3 -41 1 -29 -2 -42 -7 -38 -15 4 -7 2 -6 -7 2 -17 16
-32 16 -23 0 6 -10 4 -10 -7 0 -16 15 -33 16 -23 0 5 -7 3 -8 -7 -2 -24 14
-51 16 -43 2 6 -10 4 -11 -7 0 -17 16 -32 16 -23 0 6 -10 4 -10 -7 0 -16 15
-33 16 -23 0 5 -7 3 -8 -7 -2 -24 14 -51 16 -43 2 6 -10 5 -10 -7 -1 -23 19
-25 19 -44 3 -11 -9 -16 -10 -11 -2 5 9 -5 12 -41 13 -26 0 -57 2 -68 4 -11 2
-42 6 -70 11 -27 4 -54 9 -60 10 -5 2 -23 6 -40 9 -71 15 -161 70 -235 145
-69 69 -77 82 -103 160 -43 128 -46 146 -56 261 -10 110 0 642 20 1039 42 863
43 1270 3 1384 -8 21 -12 42 -9 46 13 22 -100 304 -118 293 -6 -3 -7 -1 -4 4
4 6 -7 25 -23 43 -17 18 -30 38 -29 44 3 25 -2 36 -16 36 -9 0 -22 14 -29 30
-7 17 -15 28 -19 25 -4 -3 -5 -2 -2 2 3 3 -1 13 -8 21 -10 13 -9 14 3 8 8 -4
4 2 -10 14 -14 12 -19 19 -12 15 6 -3 12 -1 12 4 0 6 -6 11 -12 11 -7 0 -2 9
12 20 14 11 22 20 19 20 -4 0 -3 16 1 35 5 24 4 35 -4 36 -7 0 -7 2 2 6 6 2
12 9 12 14 0 6 -4 7 -10 4 -16 -10 -11 1 7 16 14 12 16 12 9 -1 -4 -8 -1 -6 8
4 8 10 13 23 10 28 -3 5 -1 7 4 6 8 -3 62 47 62 57 0 2 26 43 58 92 31 48 67
108 79 133 20 42 29 64 72 185 10 28 24 85 31 128 7 42 16 77 20 77 4 0 7 6 8
13 3 24 11 73 16 97 4 14 9 77 12 140 3 63 7 121 9 128 3 7 1 11 -3 8 -5 -3
-8 23 -8 58 1 35 -3 62 -7 59 -4 -2 -6 7 -3 21 3 14 1 28 -4 31 -6 3 -5 16 0
30 5 14 6 25 2 25 -5 0 -8 27 -7 59 0 33 -3 57 -8 54 -4 -2 -5 6 -3 19 2 13
-1 31 -6 41 -6 12 -5 17 4 17 11 0 11 2 0 8 -7 5 -11 19 -8 33 2 13 -1 32 -6
42 -6 12 -5 17 4 17 8 0 9 3 3 8 -6 4 -10 14 -10 22 1 8 -3 23 -7 33 -6 11 -5
17 4 17 11 0 11 2 0 8 -7 5 -11 19 -9 33 2 13 -2 41 -9 63 -18 49 -18 127 1
300 13 123 13 161 -1 330 -15 191 -17 208 -49 345 -23 96 -90 196 -184 274
-38 31 -74 57 -80 57 -7 0 -42 15 -79 34 -63 33 -204 81 -268 92 -16 2 -35 7
-42 9 -7 2 -34 7 -60 11 -26 3 -74 9 -107 14 -33 4 -323 8 -645 9 -322 1 -603
4 -624 6 -56 6 -107 15 -115 20 -4 2 -18 6 -32 9 -13 2 -51 14 -84 27 -33 13
-64 22 -70 20 -5 -1 -7 1 -3 5 8 8 -32 41 -44 36 -5 -1 -7 4 -5 11 1 6 -5 11
-13 9 -8 -2 -12 0 -8 4 4 3 -11 27 -32 52 -22 25 -54 70 -70 101 -33 60 -70
192 -70 247 0 19 -5 34 -11 34 -15 0 -5 126 20 267 19 104 52 176 108 237 14
16 18 26 11 28 -18 6 89 83 162 117 44 20 89 31 140 36 41 3 77 8 79 11 10 9
5817 -3 5881 -13z m-3960 -1545 c0 -10 -275 -12 -1352 -9 -744 3 -1324 7
-1288 11 36 4 644 7 1353 8 1024 2 1287 -1 1287 -10z m4595 3 c22 -5 -559 -9
-1292 -10 -732 0 -1338 -4 -1347 -7 -11 -4 -16 -1 -16 10 0 15 113 16 1308 15
719 0 1325 -4 1347 -8z m-4598 -1176 c2 -6 -57 -11 -160 -12 -194 -3 -469 -25
-932 -73 -177 -18 -559 -73 -700 -100 -309 -60 -385 -77 -583 -131 -374 -102
-635 -235 -721 -366 -39 -59 -51 -63 -26 -9 35 74 170 174 340 251 155 71 526
180 775 229 269 52 530 95 710 116 52 6 127 15 165 20 148 21 541 55 795 70
96 6 186 12 200 14 48 7 133 1 137 -9z m2128 -5 c409 -31 425 -33 715 -65 618
-70 1131 -170 1489 -292 282 -96 449 -192 533 -307 24 -33 28 -49 28 -101 0
-75 -18 -121 -67 -176 -199 -220 -841 -408 -1823 -534 -192 -25 -432 -49 -845
-84 -66 -6 -137 -11 -157 -11 l-38 0 0 385 c0 374 1 385 20 395 19 10 20 21
20 368 l0 357 97 -3 c54 -2 102 -8 108 -13 5 -5 63 -9 130 -10 66 0 154 -4
195 -9 207 -24 349 -31 372 -19 21 12 22 12 3 19 -76 28 -791 98 -908 89 -33
-3 -47 0 -47 8 0 15 15 15 175 3z m-2175 -787 l0 -736 -122 7 c-68 3 -184 9
-258 12 -74 4 -139 10 -145 14 -5 4 -82 11 -170 14 -88 4 -164 11 -170 15 -5
5 -60 11 -122 15 -61 4 -126 11 -145 16 -18 6 -52 10 -75 10 -23 0 -44 4 -47
8 -3 5 -58 12 -123 16 -64 3 -122 11 -127 16 -6 6 -28 10 -50 10 -23 1 -61 5
-86 11 -25 5 -61 12 -80 15 -19 3 -44 9 -55 14 -11 4 -54 13 -95 19 -173 26
-220 36 -285 62 -11 4 -41 10 -67 14 -26 3 -50 10 -53 16 -4 5 -16 9 -28 9
-25 0 -133 33 -143 43 -4 4 -17 7 -28 7 -12 0 -34 7 -50 15 -15 8 -34 15 -42
15 -22 0 -205 85 -297 138 -75 43 -142 112 -160 165 -15 45 -15 48 9 94 25 47
90 114 129 134 11 5 36 19 55 31 61 37 144 78 157 78 7 0 21 4 31 10 9 5 35
16 57 25 22 9 47 20 56 25 9 5 34 12 55 15 22 4 48 10 59 15 62 26 108 40 130
40 13 0 26 4 29 9 4 5 29 12 58 16 29 4 59 11 68 16 21 11 157 39 191 39 15 0
30 4 34 9 3 5 36 12 73 16 37 3 76 10 87 15 11 4 65 15 120 24 139 22 166 26
280 37 55 6 108 15 117 20 10 5 32 9 50 9 18 0 82 7 143 15 208 27 410 45 517
45 61 0 109 4 113 10 3 6 50 11 103 11 53 1 131 5 172 9 41 4 87 7 103 8 l27
2 0 -737z m-36 -1129 c3 -8 2 -12 -4 -9 -6 3 -10 10 -10 16 0 14 7 11 14 -7z"/>
<path d="M4016 12925 c-3 -8 -1 -15 4 -15 6 0 10 7 10 15 0 8 -2 15 -4 15 -2
0 -6 -7 -10 -15z"/>
<path d="M3085 11691 c-3 -5 -2 -12 3 -15 5 -3 9 1 9 9 0 17 -3 19 -12 6z"/>
<path d="M3780 11675 c-12 -14 -6 -35 10 -35 6 0 9 11 8 25 -3 29 -2 29 -18
10z"/>
<path d="M3446 11667 c3 -10 9 -15 12 -12 3 3 0 11 -7 18 -10 9 -11 8 -5 -6z"/>
<path d="M18205 11669 c-4 -6 -5 -12 -2 -15 2 -3 7 2 10 11 7 17 1 20 -8 4z"/>
<path d="M18285 11670 c-4 -6 -4 -14 -1 -17 3 -4 6 0 6 7 0 9 5 8 19 -4 21
-19 35 -9 20 14 -7 12 -9 12 -9 1 0 -10 -3 -11 -14 -2 -10 9 -16 9 -21 1z"/>
<path d="M18346 11667 c3 -10 9 -15 12 -12 3 3 0 11 -7 18 -10 9 -11 8 -5 -6z"/>
<path d="M18670 11660 c-6 -11 -8 -20 -6 -20 3 0 10 9 16 20 6 11 8 20 6 20
-3 0 -10 -9 -16 -20z"/>
<path d="M18253 7745 c-3 -9 -3 -18 -1 -21 3 -3 8 4 11 16 6 23 -1 27 -10 5z"/>
<path d="M18294 7739 c-3 -6 -1 -16 5 -22 6 -6 11 -7 11 -3 0 5 8 2 18 -5 9
-7 14 -9 10 -5 -4 5 -2 16 5 24 10 13 9 14 -3 7 -25 -15 -42 -15 -36 1 6 17 0
19 -10 3z"/>
<path d="M5316 6612 c-2 -4 -84 -7 -180 -7 -115 1 -176 -3 -176 -10 0 -5 -5
-3 -10 5 -6 9 -10 10 -10 3 0 -15 17 -26 23 -15 3 4 83 7 177 7 94 0 174 4
177 8 3 5 9 3 14 -4 6 -10 9 -10 9 -2 0 15 -17 26 -24 15z"/>
<path d="M16909 6583 c-13 -16 -12 -17 4 -4 9 7 17 15 17 17 0 8 -8 3 -21 -13z"/>
</g>
</svg>
